<?xml version="1.0" standalone="no"?>
<!DOCTYPE svg PUBLIC "-//W3C//DTD SVG 20010904//EN"
 "http://www.w3.org/TR/2001/REC-SVG-20010904/DTD/svg10.dtd">
<svg version="1.0" xmlns="http://www.w3.org/2000/svg"
 width="3949.000000pt" height="1517.000000pt" viewBox="0 0 3949.000000 1517.000000"
 preserveAspectRatio="xMidYMid meet" >
<metadata>
Created by Mani Mishra
</metadata>
<g transform="translate(0.000000,1517.000000) scale(0.100000,-0.100000)" 
font-weight="bold" fill="rgb(230,0,115)" stroke="rgb(35,187,166)" stroke-width="70" >
<path d="M17024 14721 c-64 -23 -119 -55 -265 -152 -63 -42 -147 -93 -185
-112 -67 -34 -72 -39 -147 -151 -42 -64 -77 -120 -77 -126 0 -5 -3 -10 -7 -10
-5 0 -13 -10 -19 -23 -6 -12 -30 -53 -53 -91 -24 -38 -51 -84 -62 -102 -10
-19 -29 -51 -40 -71 -121 -212 -246 -452 -465 -893 -189 -381 -198 -400 -327
-650 -118 -229 -143 -277 -169 -313 -34 -49 -172 -216 -220 -268 -82 -87 -108
-122 -107 -143 0 -21 0 -21 12 -1 14 23 137 145 146 145 8 0 31 -127 31 -170
0 -46 -38 -117 -97 -180 -40 -43 -58 -74 -73 -121 -39 -120 -52 -194 -52 -299
0 -86 4 -116 22 -164 28 -72 97 -146 155 -164 59 -19 190 -26 266 -14 240 37
552 280 872 678 130 162 171 239 147 274 -11 17 -25 4 -130 -120 -30 -36 -59
-70 -65 -76 -5 -6 -30 -35 -55 -65 -80 -97 -304 -316 -403 -394 -159 -126
-327 -165 -443 -103 -88 47 -108 95 -108 263 -1 203 57 399 210 711 48 98 64
120 137 190 45 44 111 104 147 134 149 127 225 196 369 341 164 163 300 310
381 409 25 30 47 57 50 60 4 3 36 43 74 90 37 47 73 92 79 100 7 8 23 31 37
50 13 19 27 37 30 40 3 3 17 21 30 40 13 19 27 37 30 40 4 3 21 27 40 54 18
27 64 90 101 139 37 49 73 101 80 116 8 14 17 31 22 36 19 26 127 196 127 201
0 3 8 18 19 32 10 15 38 63 62 107 127 234 177 371 186 511 7 104 -3 143 -48
193 -29 33 -33 35 -112 38 -62 3 -94 -1 -133 -16z m186 -60 c0 -5 -4 -11 -8
-13 -4 -1 -31 -32 -60 -68 -45 -57 -52 -70 -52 -110 0 -51 -36 -192 -67 -260
-11 -25 -33 -74 -49 -110 -52 -119 -180 -361 -272 -517 -58 -97 -215 -328
-275 -403 -7 -8 -23 -31 -37 -50 -14 -19 -30 -42 -37 -50 -7 -8 -34 -42 -60
-76 -93 -117 -209 -247 -328 -369 -33 -33 -94 -99 -135 -145 -41 -46 -84 -93
-95 -104 -11 -12 -31 -37 -45 -56 -13 -19 -30 -41 -37 -48 -7 -7 -20 -26 -30
-42 -9 -17 -21 -30 -26 -30 -6 0 -82 47 -106 66 -2 2 23 41 56 86 33 46 70
100 82 121 11 20 31 54 42 75 35 60 55 97 159 287 15 28 44 82 65 120 21 39
41 75 45 80 4 6 25 44 47 85 22 41 54 99 71 128 18 29 32 55 32 57 0 2 15 30
34 62 34 59 66 116 119 213 17 30 48 84 69 119 21 34 38 64 38 66 0 1 37 63
82 136 44 74 86 144 92 156 6 13 14 23 19 23 4 0 7 5 7 10 0 10 96 159 110
170 3 3 17 21 30 40 13 19 27 37 30 40 3 3 17 21 31 40 47 63 183 197 218 215
34 17 191 62 224 64 9 1 17 -3 17 -8z"/>
<path d="M31311 14720 c-57 -20 -91 -40 -269 -158 -62 -40 -143 -90 -179 -109
-64 -33 -71 -40 -151 -159 -45 -69 -91 -139 -101 -157 -10 -18 -37 -63 -61
-101 -52 -86 -86 -145 -158 -278 -23 -42 -58 -105 -77 -140 -19 -35 -167 -326
-328 -648 -263 -523 -388 -769 -457 -896 -31 -57 -153 -210 -265 -332 -78 -86
-92 -102 -153 -181 -74 -97 -81 -110 -82 -148 0 -24 4 -33 16 -33 17 0 64 47
64 64 0 5 23 55 51 112 41 84 61 112 105 150 34 28 59 43 65 37 13 -13 33
-111 31 -155 -2 -47 -29 -102 -77 -153 -20 -22 -47 -56 -61 -77 -67 -96 -106
-385 -68 -503 44 -143 125 -204 282 -213 103 -5 201 9 283 43 49 20 233 134
249 154 3 4 21 18 40 31 19 13 40 29 46 35 6 5 33 28 60 49 27 22 68 62 92 90
23 28 79 89 123 136 44 47 90 108 103 135 62 129 106 226 106 233 0 7 -27 -22
-74 -78 -107 -131 -355 -389 -467 -486 -155 -135 -303 -192 -432 -165 -71 15
-138 73 -157 136 -46 158 -6 393 115 670 8 17 23 53 34 81 56 144 95 209 171
284 79 79 130 125 221 200 140 116 513 490 649 650 30 36 57 67 60 70 4 3 55
66 114 140 59 74 113 142 119 150 7 8 23 31 37 50 13 19 27 37 30 40 3 3 17
21 30 40 13 19 27 37 30 40 4 3 26 34 50 70 24 36 47 67 50 70 4 3 13 16 20
29 7 14 17 30 21 35 14 17 169 256 169 260 0 2 18 34 41 71 158 260 239 478
239 642 0 64 -4 83 -25 120 -14 23 -39 50 -55 58 -41 21 -152 19 -219 -5z
m114 -126 c-23 -42 -35 -79 -35 -104 0 -65 -53 -241 -111 -369 -53 -115 -132
-274 -162 -326 -17 -27 -38 -65 -48 -82 -11 -18 -27 -48 -38 -65 -49 -87 -86
-146 -152 -245 -40 -59 -75 -110 -79 -113 -3 -3 -22 -27 -40 -55 -19 -27 -56
-79 -84 -115 -27 -36 -63 -83 -80 -105 -17 -22 -33 -42 -36 -45 -3 -3 -18 -21
-34 -40 -59 -72 -154 -178 -257 -285 -160 -165 -180 -187 -226 -241 -23 -27
-51 -60 -62 -73 -11 -13 -35 -45 -52 -72 -17 -27 -35 -49 -41 -49 -15 0 -98
60 -98 71 0 12 55 94 82 123 10 11 18 24 18 29 0 4 13 27 28 50 27 40 56 91
134 237 19 36 47 86 62 113 14 26 37 67 51 92 14 25 36 64 49 88 13 23 38 69
56 102 18 33 40 74 50 90 10 17 29 51 44 78 14 26 37 67 51 92 14 25 36 64 49
88 13 23 33 59 45 80 11 20 30 53 41 72 11 19 29 51 40 70 11 19 29 50 39 69
11 18 38 64 60 101 23 37 41 69 41 72 0 2 18 31 40 63 22 32 40 62 40 65 0 9
139 214 194 285 27 36 70 86 94 112 25 26 51 56 58 67 31 44 118 95 198 117
45 13 87 23 93 23 8 1 -1 -26 -22 -65z"/>
<path d="M35795 14730 c-170 -24 -341 -89 -479 -183 -84 -57 -98 -69 -221
-192 -121 -121 -138 -140 -208 -235 -27 -36 -53 -72 -60 -80 -21 -26 -137
-208 -137 -214 0 -2 -17 -33 -38 -67 -21 -35 -44 -77 -52 -94 -8 -16 -21 -36
-28 -43 -7 -8 -25 -30 -40 -50 -15 -21 -33 -43 -39 -50 -27 -28 -96 -152 -235
-422 -42 -80 -100 -192 -130 -250 -52 -98 -67 -125 -118 -215 -11 -19 -29 -51
-40 -71 -50 -88 -29 -80 -238 -87 -292 -11 -445 -46 -567 -131 -16 -11 -32
-23 -35 -26 -3 -3 -25 -21 -50 -40 -118 -90 -337 -314 -411 -420 -21 -30 -57
-80 -78 -110 -22 -30 -40 -60 -41 -67 0 -6 -5 -13 -11 -15 -6 -2 -11 -15 -10
-28 2 -114 1 -132 -17 -167 -26 -53 -58 -108 -75 -130 -20 -25 -127 -154 -144
-174 -35 -41 -100 -350 -89 -424 4 -22 17 -54 30 -70 24 -30 25 -30 123 -29
113 1 180 22 298 91 80 47 205 135 261 184 63 55 214 203 214 211 0 13 65 144
94 190 44 68 71 81 156 72 39 -3 70 -10 70 -15 0 -15 -102 -185 -141 -234 -92
-115 -130 -200 -148 -329 -13 -88 1 -132 49 -160 86 -51 351 -7 495 83 68 42
120 76 125 81 3 3 21 17 40 30 19 13 37 27 40 30 3 3 39 34 80 70 97 84 300
297 300 314 0 4 23 55 50 113 28 58 49 108 47 109 -2 2 -28 -24 -57 -57 -80
-92 -368 -379 -425 -424 -202 -162 -289 -202 -362 -167 -31 15 -33 19 -33 68
0 119 61 274 312 794 68 141 118 246 158 335 5 11 36 76 68 145 56 117 75 157
153 328 43 94 356 721 406 812 22 41 72 136 110 210 83 159 109 206 134 242
11 14 19 29 19 32 0 5 111 180 128 201 4 6 28 39 52 75 24 36 46 67 49 70 4 3
19 22 35 43 43 59 216 230 261 260 77 50 193 78 330 79 202 1 318 -72 369
-234 6 -19 23 -23 43 -10 8 5 17 57 24 135 17 187 -4 243 -107 288 -56 24
-166 32 -259 19z m-2094 -2352 c116 -34 107 -162 -26 -386 -217 -366 -609
-826 -870 -1023 -85 -63 -136 -95 -166 -102 -24 -6 -29 -3 -43 33 -9 23 -23
43 -31 46 -51 20 47 322 178 549 13 22 37 65 54 95 29 53 104 174 121 195 4 6
20 31 35 57 15 26 33 53 40 60 6 7 28 36 47 64 32 46 86 114 137 169 30 34
124 109 188 152 136 90 244 119 336 91z"/>
<path d="M3415 14313 c-234 -19 -499 -82 -739 -175 -173 -67 -392 -194 -491
-283 -22 -20 -51 -44 -65 -53 -46 -30 -240 -172 -250 -182 -3 -3 -34 -29 -70
-59 -77 -64 -280 -267 -330 -330 -19 -24 -39 -49 -45 -55 -103 -120 -274 -392
-365 -583 -49 -104 -58 -122 -80 -178 -5 -14 -14 -35 -19 -47 -92 -219 -151
-530 -151 -798 0 -338 95 -573 315 -778 139 -130 289 -213 495 -275 588 -178
1201 -58 1843 360 170 111 290 232 347 350 22 46 40 87 40 92 0 5 6 14 14 20
11 9 27 7 70 -9 31 -12 56 -24 56 -28 0 -15 -27 -82 -54 -132 -16 -30 -41 -77
-56 -105 -14 -27 -37 -77 -50 -110 -13 -33 -26 -64 -30 -70 -4 -5 -31 -71 -60
-145 -29 -74 -61 -154 -71 -177 -10 -24 -19 -45 -19 -48 0 -15 -177 -379 -254
-520 -80 -149 -230 -390 -281 -454 -8 -9 -44 -56 -81 -106 -165 -222 -287
-347 -516 -530 -62 -50 -218 -146 -302 -186 -230 -109 -414 -152 -661 -153
-138 0 -171 3 -240 22 -314 90 -482 322 -461 637 3 55 7 109 9 120 3 25 -39
32 -68 11 -18 -13 -20 -28 -23 -168 -4 -148 8 -271 30 -327 76 -189 187 -315
354 -399 77 -39 256 -96 369 -118 133 -25 331 -23 469 5 286 58 615 209 849
389 96 73 294 274 377 382 19 25 38 47 41 50 3 3 43 61 88 128 78 118 183 310
245 452 16 36 39 89 52 118 13 29 24 58 24 66 0 7 3 16 7 19 7 8 28 65 78 212
34 102 68 220 135 465 25 92 40 146 51 185 5 17 55 190 110 385 114 404 164
567 209 680 32 83 70 160 102 207 15 23 28 46 28 51 0 6 4 12 8 14 5 2 22 23
39 48 51 74 105 124 162 147 56 24 141 42 198 43 48 0 52 2 73 36 11 21 17 40
13 44 -12 11 -1885 19 -1968 9 -176 -23 -302 -87 -350 -179 -19 -37 -35 -123
-35 -187 0 -65 27 -125 120 -264 l61 -89 29 15 c34 18 34 17 20 65 -19 64 -14
182 10 239 47 107 175 184 376 226 162 33 360 45 767 45 376 0 397 -1 397 -18
0 -10 -4 -22 -8 -28 -5 -5 -19 -36 -32 -69 -45 -116 -193 -410 -240 -475 -11
-16 -20 -31 -20 -34 0 -22 -240 -361 -319 -451 -172 -195 -372 -361 -592 -492
-126 -75 -364 -158 -534 -188 -573 -99 -970 24 -1208 374 -106 157 -150 332
-150 601 0 175 12 270 60 470 47 197 172 511 282 703 47 83 59 104 90 155 61
103 198 299 266 380 11 13 28 33 38 45 159 191 342 369 484 469 196 141 340
221 527 293 242 93 421 129 646 130 142 0 176 -3 243 -23 101 -29 142 -50 198
-103 62 -60 83 -93 111 -174 21 -63 23 -87 22 -235 -1 -148 -4 -176 -28 -265
-15 -55 -37 -120 -49 -145 -12 -25 -23 -48 -25 -52 -2 -5 9 -8 25 -8 34 1 93
29 104 50 4 8 27 55 51 105 23 49 72 135 108 190 101 154 114 185 114 285 1
70 -4 94 -23 133 -25 50 -112 143 -143 153 -10 3 -18 9 -18 13 0 16 -223 113
-312 135 -149 38 -382 54 -563 39z"/>
<path d="M20035 14299 c-27 -5 -311 -14 -630 -19 -586 -9 -630 -12 -820 -54
-196 -42 -345 -138 -396 -252 -27 -60 -36 -192 -20 -279 19 -105 95 -243 192
-349 54 -59 86 -70 123 -43 17 12 17 15 -7 43 -59 71 -71 110 -71 239 -1 117
0 122 33 190 50 103 141 188 261 247 142 70 270 96 670 138 102 11 211 25 242
31 38 8 74 9 110 3 l53 -9 -2 -45 c-4 -90 -1 -87 -110 -92 -105 -5 -134 -15
-211 -74 -186 -141 -315 -313 -492 -649 -26 -49 -59 -111 -73 -137 -15 -27
-38 -67 -51 -91 -13 -24 -42 -74 -65 -111 -22 -38 -41 -70 -41 -73 0 -3 -8
-17 -19 -31 -10 -15 -28 -44 -40 -64 -37 -66 -57 -101 -90 -156 -17 -29 -31
-54 -31 -56 0 -2 -18 -34 -41 -71 -22 -37 -49 -83 -60 -101 -10 -19 -29 -51
-40 -71 -12 -21 -32 -57 -45 -80 -13 -24 -35 -62 -48 -85 -13 -24 -34 -61 -46
-83 -13 -22 -36 -65 -52 -95 -16 -30 -33 -59 -37 -65 -5 -5 -22 -35 -38 -65
-17 -30 -40 -72 -52 -92 -11 -21 -29 -53 -40 -70 -10 -18 -33 -58 -51 -88 -18
-30 -41 -70 -51 -87 -11 -18 -27 -48 -38 -65 -10 -18 -32 -57 -50 -86 -17 -29
-31 -55 -31 -58 0 -3 -8 -18 -19 -32 -10 -15 -28 -44 -40 -64 -11 -21 -30 -54
-41 -73 -11 -19 -30 -52 -41 -72 -12 -21 -29 -49 -38 -63 -9 -14 -23 -37 -30
-51 -45 -91 -232 -303 -355 -404 l-47 -38 21 -21 c24 -24 26 -23 125 52 117
90 228 117 398 99 97 -10 98 -10 121 14 13 13 38 62 57 109 32 82 402 829 475
960 20 36 58 106 84 155 26 50 56 106 67 125 101 177 101 179 55 279 l-24 55
79 75 c43 42 113 107 156 145 42 38 77 72 77 77 0 4 15 34 34 66 18 32 45 78
58 103 14 25 58 101 97 168 39 68 71 125 71 127 0 2 23 40 50 85 28 45 50 83
50 85 0 2 14 28 31 57 33 55 53 90 90 156 12 20 30 49 40 64 11 14 19 29 19
33 0 3 14 26 30 50 17 24 30 46 30 50 0 7 72 115 114 170 45 59 185 197 232
228 72 49 149 70 251 70 77 0 95 3 109 18 13 15 14 24 5 50 -6 17 -19 38 -28
45 -20 15 -83 16 -158 3z"/>
<path d="M21755 14254 c-210 -42 -564 -211 -920 -439 -27 -17 -111 -71 -185
-119 -288 -185 -326 -209 -449 -283 -69 -41 -148 -90 -176 -108 -27 -17 -77
-49 -110 -70 -96 -61 -320 -209 -325 -215 -3 -3 -34 -25 -70 -49 -68 -47 -301
-220 -310 -231 -3 -3 -25 -21 -50 -40 -25 -19 -47 -37 -50 -40 -3 -3 -30 -26
-60 -52 -31 -26 -66 -66 -79 -90 -13 -24 -46 -85 -73 -137 -28 -52 -59 -110
-70 -129 -19 -34 -19 -35 0 -76 10 -22 28 -61 38 -86 22 -52 210 -426 244
-485 12 -22 34 -60 48 -85 63 -114 204 -336 222 -350 3 -3 21 -27 40 -55 140
-208 338 -394 507 -479 198 -98 439 -70 658 77 101 69 289 253 435 427 25 29
50 58 55 64 6 6 31 39 58 73 45 58 47 64 47 125 l-1 63 -27 -31 c-15 -17 -35
-42 -46 -55 -95 -121 -246 -278 -326 -339 -25 -19 -47 -37 -50 -40 -14 -15
-73 -51 -126 -78 -249 -126 -500 -71 -736 161 -70 69 -137 147 -244 287 -54
70 -254 366 -254 375 0 4 -13 25 -28 48 -16 23 -32 49 -35 57 -4 8 -20 38 -37
65 -27 46 -80 151 -189 375 -23 47 -53 105 -67 129 -21 36 -23 46 -12 56 7 7
83 59 168 116 85 57 160 107 165 112 85 69 625 430 750 501 11 6 39 24 62 39
24 15 44 27 47 27 2 0 35 19 72 42 176 107 571 313 734 383 25 10 95 41 155
68 61 27 157 69 215 94 58 25 130 56 160 70 72 33 298 116 386 141 112 33 179
43 274 43 113 0 153 -17 234 -101 69 -72 99 -78 104 -20 4 49 -29 94 -107 147
-169 113 -444 161 -666 117z"/>
<path d="M28608 12613 c-25 -7 -32 -36 -11 -50 54 -38 64 -48 79 -77 22 -41
30 -194 15 -282 -26 -147 -163 -480 -253 -611 -15 -23 -28 -46 -28 -52 0 -6
-4 -11 -8 -11 -5 0 -15 -12 -23 -27 -8 -16 -17 -30 -20 -33 -3 -3 -25 -34 -49
-70 -39 -58 -96 -136 -110 -150 -3 -3 -30 -34 -60 -70 -71 -83 -143 -156 -200
-200 -25 -19 -47 -37 -50 -40 -10 -10 -86 -58 -134 -84 -112 -62 -231 -69
-278 -18 -46 50 -51 80 -45 250 8 208 44 398 128 677 116 382 180 555 259 695
38 66 18 86 -43 43 -56 -39 -112 -61 -232 -88 -88 -20 -101 -25 -116 -51 -9
-16 -25 -45 -36 -64 -11 -20 -60 -112 -108 -205 -149 -288 -196 -378 -236
-444 -22 -34 -39 -65 -39 -68 0 -2 -13 -24 -30 -48 -16 -24 -30 -48 -30 -54 0
-6 -4 -11 -10 -11 -5 0 -10 -5 -10 -10 0 -13 -106 -171 -173 -260 -117 -153
-262 -307 -334 -355 -55 -35 -145 -57 -182 -44 -79 31 -99 101 -82 291 15 161
57 366 123 598 36 127 123 393 142 435 8 17 27 62 42 100 24 60 64 142 121
248 8 15 12 35 9 43 -5 14 -11 13 -44 -7 -93 -57 -136 -72 -329 -114 -14 -3
-35 -27 -56 -63 -19 -31 -49 -82 -66 -111 -18 -31 -25 -49 -16 -41 17 14 17 7
11 -115 -10 -185 -17 -214 -99 -370 -40 -77 -107 -551 -107 -759 0 -146 17
-207 74 -261 69 -67 154 -81 267 -44 92 30 223 93 272 131 55 42 172 159 228
228 24 30 52 64 62 75 10 11 76 97 146 190 121 162 128 173 141 240 19 101 95
335 109 335 4 0 16 -8 27 -18 10 -10 33 -28 51 -40 61 -43 79 -120 45 -190
-11 -20 -42 -76 -69 -124 -63 -106 -59 -95 -78 -253 -18 -157 -20 -372 -3
-428 15 -48 78 -116 133 -143 59 -28 198 -25 285 6 134 47 282 134 437 255
114 88 392 385 507 540 21 28 43 57 50 65 30 38 76 110 76 119 0 6 5 11 10 11
6 0 10 5 10 11 0 6 13 29 28 52 67 98 159 281 200 397 56 160 63 274 22 365
-23 53 -60 86 -145 129 -67 34 -116 43 -167 29z"/>
<path d="M7710 12565 c-45 -33 -97 -48 -263 -81 l-138 -27 -31 -46 c-36 -53
-229 -314 -238 -321 -3 -3 -31 -39 -62 -80 -31 -41 -66 -86 -78 -100 -12 -14
-48 -59 -79 -100 -31 -41 -61 -82 -68 -90 -72 -90 -73 -90 -66 -138 3 -26 7
-48 8 -50 1 -1 40 43 86 99 46 56 89 107 94 113 32 35 95 115 95 120 0 3 9 28
21 54 12 26 24 56 29 67 36 95 76 158 113 182 l41 26 34 -38 c33 -36 34 -40
29 -95 -6 -71 -48 -153 -117 -230 -27 -30 -50 -59 -50 -65 0 -11 -109 -291
-141 -362 -10 -24 -19 -47 -19 -51 0 -8 -36 -99 -66 -169 -57 -133 -112 -267
-125 -308 -7 -22 -17 -44 -21 -49 -4 -6 -8 -16 -8 -24 0 -8 -20 -56 -45 -108
-45 -93 -54 -127 -35 -139 5 -3 44 8 87 24 43 17 103 36 133 42 30 7 60 17 66
23 6 6 21 38 34 71 59 152 175 389 277 565 70 121 208 328 233 350 4 3 13 14
21 26 68 100 283 315 418 418 14 11 28 23 31 26 3 3 22 18 43 34 47 35 103 90
109 107 6 17 128 -8 128 -26 0 -16 -46 -116 -170 -370 -98 -201 -175 -362
-201 -422 -8 -18 -17 -33 -20 -33 -20 0 -149 -309 -174 -415 -35 -154 -10
-296 62 -345 46 -31 155 -38 243 -16 72 19 205 87 287 147 65 49 208 189 283
279 30 36 57 67 60 70 3 3 30 34 60 70 30 35 63 73 73 85 21 23 130 245 124
251 -2 3 -26 -19 -52 -48 -369 -408 -504 -535 -631 -593 -117 -54 -204 -19
-204 81 0 50 57 217 132 384 70 156 275 556 324 632 13 21 24 40 24 42 0 3 23
42 52 88 28 46 69 118 90 160 33 66 39 86 36 130 -3 47 -7 55 -37 75 -63 43
-234 28 -351 -29 -36 -18 -165 -98 -195 -121 -5 -4 -41 -31 -80 -59 -38 -28
-72 -54 -75 -57 -3 -4 -34 -31 -70 -61 -106 -91 -186 -169 -201 -198 -86 -166
-156 -270 -245 -362 -63 -65 -74 -72 -79 -55 -4 11 -16 44 -27 73 -23 58 -21
107 6 163 17 36 33 55 175 209 48 52 99 115 113 140 23 42 34 61 88 155 46 80
59 103 94 162 20 34 42 68 49 75 18 19 38 68 32 79 -10 15 -38 9 -75 -16z"/>
<path d="M11850 12565 c-46 -33 -99 -49 -260 -80 -109 -20 -138 -30 -153 -48
-10 -12 -24 -29 -30 -37 -7 -9 -28 -38 -47 -65 -43 -62 -247 -332 -260 -345
-3 -3 -17 -21 -30 -40 -14 -19 -30 -42 -37 -50 -26 -32 -109 -138 -133 -170
-14 -18 -37 -49 -52 -68 -24 -30 -27 -40 -21 -80 3 -26 7 -48 8 -50 1 -1 38
41 81 95 43 54 80 100 83 103 50 44 112 138 140 210 60 155 87 200 139 231
l36 21 34 -37 c33 -36 34 -41 29 -94 -6 -69 -51 -153 -134 -248 -15 -18 -48
-83 -71 -145 -112 -290 -326 -824 -333 -832 -5 -6 -9 -16 -9 -23 0 -13 -17
-54 -66 -159 -13 -28 -24 -61 -24 -74 0 -20 3 -22 35 -16 20 4 56 16 80 26 25
11 73 25 107 31 73 14 79 20 97 74 12 39 51 143 134 355 56 144 180 385 257
500 58 87 117 168 131 180 3 3 12 15 21 28 17 24 161 184 214 236 154 153 288
258 352 276 49 13 118 13 145 -1 90 -47 135 -173 122 -341 -4 -52 -3 -88 3
-88 5 0 22 5 38 10 29 10 35 20 121 182 79 150 67 315 -31 413 -70 70 -177 83
-313 40 -63 -20 -198 -95 -223 -124 -3 -3 -26 -23 -52 -44 -75 -60 -121 -109
-144 -152 -12 -22 -45 -85 -74 -140 -71 -134 -142 -235 -207 -295 -30 -28 -58
-50 -63 -50 -4 0 -23 29 -40 64 -27 54 -32 72 -26 106 7 47 39 118 64 146 10
10 25 29 33 41 20 29 152 176 200 223 20 19 49 57 64 85 30 55 82 133 103 154
16 16 32 55 32 77 0 21 -31 16 -70 -11z"/>
<path d="M22479 12567 c-51 -34 -109 -52 -267 -83 l-144 -28 -41 -60 c-22 -34
-43 -63 -47 -66 -3 -3 -17 -21 -30 -40 -13 -19 -27 -37 -30 -40 -3 -3 -17 -21
-30 -40 -13 -19 -27 -37 -30 -40 -3 -3 -17 -21 -30 -40 -13 -19 -27 -37 -30
-40 -3 -3 -25 -32 -50 -65 -25 -33 -63 -83 -85 -111 -22 -28 -51 -66 -65 -84
-27 -35 -111 -143 -135 -173 -16 -18 -21 -127 -7 -127 4 0 15 12 24 28 9 15
27 38 40 52 13 14 43 50 68 80 25 30 47 57 50 60 38 34 101 130 116 176 10 31
36 93 58 138 34 67 48 85 83 104 l42 23 30 -33 c61 -66 35 -170 -78 -312 -38
-47 -64 -100 -111 -216 -34 -85 -69 -175 -77 -200 -9 -25 -28 -73 -44 -108
-16 -34 -29 -66 -29 -71 0 -11 -48 -131 -99 -243 -11 -26 -21 -52 -21 -58 0
-6 -5 -18 -10 -28 -15 -24 -119 -281 -131 -321 -6 -19 -7 -37 -2 -42 5 -5 53
7 111 27 56 19 120 38 144 42 38 7 43 11 58 52 9 25 24 62 33 84 9 21 17 40
17 42 0 25 215 448 261 516 11 14 19 29 19 32 0 7 112 176 135 204 8 10 31 40
52 68 111 150 247 289 413 424 30 25 57 47 60 50 3 3 25 21 50 40 50 38 97 85
102 101 3 8 24 9 66 4 68 -8 74 -16 48 -71 -8 -16 -22 -47 -31 -69 -10 -22
-75 -157 -146 -300 -70 -143 -143 -294 -163 -335 -20 -41 -48 -98 -64 -126
-15 -27 -35 -70 -45 -95 -11 -24 -25 -57 -32 -74 -22 -49 -62 -176 -74 -233
-29 -139 -2 -267 66 -312 34 -22 48 -25 138 -25 120 0 165 15 320 106 22 13
42 26 45 29 3 3 22 18 43 34 49 36 216 203 287 286 30 36 57 67 60 70 34 32
91 117 110 165 13 33 31 74 40 90 39 71 24 64 -63 -30 -108 -117 -317 -328
-367 -371 -157 -135 -319 -174 -359 -88 -22 49 -4 153 44 259 7 17 23 54 35
84 22 58 35 86 98 221 68 146 120 252 158 320 20 36 48 88 63 115 16 28 42 74
60 103 17 29 31 55 31 58 0 3 18 31 39 63 135 198 158 333 61 362 -65 20 -206
7 -285 -25 -83 -34 -355 -210 -395 -256 -3 -3 -39 -35 -80 -70 -143 -124 -175
-158 -209 -227 -58 -113 -165 -265 -230 -325 -34 -32 -65 -58 -69 -58 -12 0
-52 123 -52 159 0 36 30 105 62 142 13 14 70 76 126 137 57 61 113 128 124
149 11 21 32 58 46 83 14 25 38 69 55 99 47 85 126 211 142 227 19 19 20 74 1
74 -7 0 -28 -10 -47 -23z"/>
<path d="M5948 12490 c-173 -31 -355 -121 -543 -268 -85 -67 -316 -295 -365
-360 -19 -26 -37 -49 -40 -52 -36 -32 -163 -263 -253 -460 -87 -190 -110 -416
-54 -540 41 -93 98 -142 207 -181 59 -21 83 -23 245 -23 166 -1 188 2 280 27
186 52 357 141 573 301 126 92 437 400 428 423 -3 8 -6 36 -6 61 l0 47 -123
-125 c-205 -208 -342 -324 -485 -412 -102 -64 -162 -90 -291 -132 -287 -93
-438 -65 -502 94 -17 43 -17 199 0 285 14 70 46 174 68 227 16 36 17 36 87 43
109 11 361 63 457 95 205 68 431 180 518 257 138 119 188 202 211 346 18 112
-7 214 -72 284 -51 55 -216 86 -340 63z m39 -109 c53 -15 80 -49 94 -118 10
-50 11 -75 1 -122 -25 -122 -92 -243 -184 -333 -155 -153 -441 -245 -730 -236
l-97 3 71 75 c63 67 182 232 216 300 40 78 186 245 287 328 101 82 254 128
342 103z"/>
<path d="M10085 12490 c-184 -33 -425 -162 -625 -335 -58 -50 -200 -196 -252
-260 -27 -33 -57 -69 -66 -80 -9 -11 -38 -56 -64 -100 -42 -71 -48 -87 -48
-137 0 -65 -32 -149 -71 -189 -55 -55 -119 -153 -133 -202 -24 -83 -36 -213
-25 -280 20 -125 99 -226 206 -266 218 -81 557 -43 817 92 80 41 292 178 331
214 11 10 43 36 70 58 54 43 238 224 297 292 34 39 37 47 37 103 0 34 -2 60
-5 58 -2 -1 -72 -71 -156 -154 -153 -150 -279 -260 -373 -325 -27 -19 -52 -37
-55 -41 -14 -18 -235 -119 -320 -146 -175 -55 -299 -63 -383 -26 -90 39 -121
106 -119 254 1 113 15 195 59 331 l27 87 96 11 c282 32 506 98 761 226 209
105 334 224 385 370 13 36 18 81 19 160 0 97 -3 115 -23 154 -51 94 -114 129
-249 136 -48 2 -110 0 -138 -5z m44 -110 c68 -19 96 -82 88 -204 -5 -96 -29
-158 -101 -266 -94 -142 -206 -221 -402 -284 -120 -39 -165 -46 -344 -52
l-165 -6 55 58 c30 32 58 61 61 64 19 18 89 119 89 128 0 7 5 12 10 12 6 0 10
5 10 10 0 16 115 185 180 265 126 155 240 237 375 271 62 15 101 17 144 4z"/>
<path d="M24920 12494 c-71 -13 -200 -63 -330 -128 -129 -65 -294 -163 -332
-198 -7 -7 -47 -42 -88 -78 -84 -72 -96 -84 -160 -156 -78 -87 -95 -108 -140
-174 -24 -36 -46 -67 -50 -70 -15 -11 -23 -49 -25 -110 -2 -78 -27 -135 -88
-201 -23 -26 -62 -75 -87 -109 -25 -35 -50 -68 -56 -74 -51 -52 -86 -317 -55
-423 27 -96 102 -128 296 -128 82 1 158 7 207 18 82 17 249 77 302 107 71 40
111 64 116 70 3 3 21 17 40 30 19 13 41 30 48 37 7 7 32 27 55 46 42 34 42 34
128 29 233 -13 426 73 653 288 l74 71 0 65 0 65 -78 -78 c-82 -84 -185 -165
-285 -226 -71 -43 -214 -98 -270 -104 -61 -6 -67 2 -53 75 11 57 14 62 38 62
26 0 53 27 135 134 92 121 151 217 246 402 84 163 116 257 137 401 27 185 -4
277 -114 332 -40 21 -66 25 -144 27 -52 1 -106 0 -120 -2z m29 -130 c25 -27
26 -33 26 -144 0 -108 -7 -150 -40 -255 -15 -47 -49 -132 -74 -189 -10 -23
-33 -75 -51 -116 -62 -146 -140 -295 -172 -331 -18 -20 -43 -49 -55 -65 -12
-16 -50 -67 -85 -114 -164 -218 -366 -378 -503 -397 -160 -22 -213 86 -165
337 25 127 125 346 268 588 18 29 32 55 32 58 0 3 14 25 30 49 17 24 30 46 30
50 0 7 80 127 90 135 3 3 17 21 30 40 13 19 27 37 30 40 3 3 18 23 35 45 47
63 94 105 190 171 106 72 141 91 215 116 76 25 135 19 169 -18z"/>
<path d="M31788 12490 c-144 -23 -340 -120 -533 -264 -80 -59 -308 -281 -355
-345 -14 -19 -30 -39 -35 -45 -16 -16 -75 -104 -75 -111 0 -3 -12 -23 -26 -45
-21 -32 -26 -52 -28 -112 -2 -72 -3 -74 -66 -168 -35 -52 -78 -113 -96 -135
-46 -57 -68 -153 -68 -290 0 -96 3 -116 24 -160 37 -75 114 -148 183 -174 201
-74 527 -46 766 66 75 35 272 153 291 173 3 3 21 17 40 30 19 13 37 27 40 30
3 3 25 21 50 40 47 36 163 144 236 219 27 29 52 70 70 115 15 39 36 86 46 104
10 18 18 37 18 43 0 6 -62 -52 -137 -128 -318 -320 -502 -450 -763 -536 -299
-100 -460 -63 -510 116 -25 92 7 327 66 483 l16 42 66 7 c266 26 554 110 795
231 169 85 302 203 356 317 34 72 56 196 48 266 -13 106 -80 194 -169 221 -56
16 -178 21 -250 10z m55 -113 c39 -17 57 -38 74 -86 55 -156 -71 -422 -263
-557 -137 -97 -335 -152 -574 -161 l-165 -6 26 29 c14 16 43 48 63 71 36 39
66 78 93 120 7 10 52 79 101 154 103 156 231 297 331 364 106 70 243 101 314
72z"/>
<path d="M37625 12494 c-11 -2 -45 -9 -75 -15 -154 -31 -338 -129 -525 -278
-77 -61 -240 -222 -295 -290 -19 -24 -40 -48 -46 -55 -15 -16 -109 -157 -135
-202 -41 -72 -155 -299 -177 -354 -56 -140 -82 -363 -53 -445 46 -126 124
-196 261 -236 69 -20 355 -18 452 3 165 37 332 114 517 241 42 28 78 54 81 57
3 3 25 21 50 40 104 80 341 317 412 412 15 20 35 43 43 52 19 19 65 115 65
137 0 9 -3 18 -6 22 -4 3 -104 -92 -223 -212 -229 -231 -241 -242 -366 -339
-101 -79 -90 -71 -160 -113 -94 -57 -132 -74 -263 -118 -154 -52 -256 -68
-342 -53 -83 15 -124 44 -158 112 -52 106 -39 270 39 505 l24 70 70 8 c126 16
378 68 466 97 177 60 396 163 484 230 25 19 145 139 165 165 74 97 102 285 60
398 -41 108 -115 155 -259 162 -47 2 -95 2 -106 -1z m17 -113 c63 -24 88 -77
88 -184 0 -158 -112 -350 -268 -458 -104 -73 -290 -139 -444 -159 -86 -10
-288 -14 -288 -5 0 3 15 23 34 43 19 20 46 51 61 67 29 33 153 216 173 255 52
103 262 326 357 380 100 57 227 84 287 61z"/>
<path d="M13765 12470 c-159 -17 -313 -82 -447 -188 -57 -45 -303 -293 -338
-341 -14 -19 -29 -39 -35 -45 -84 -94 -232 -330 -320 -509 -129 -266 -203
-573 -163 -684 18 -50 63 -67 159 -60 43 4 106 16 141 27 137 46 358 200 524
364 66 66 89 98 124 171 85 176 112 200 210 189 33 -4 63 -10 65 -15 9 -14
-103 -202 -185 -309 -50 -65 -91 -198 -93 -302 -2 -85 18 -110 103 -128 140
-30 362 37 544 162 141 98 331 279 484 459 72 86 72 87 72 145 l0 59 -28 -30
c-15 -17 -52 -60 -82 -95 -30 -36 -84 -96 -120 -134 -275 -290 -392 -375 -522
-378 -67 -1 -83 8 -98 52 -19 58 3 149 81 330 29 67 270 550 302 605 13 22 37
65 54 95 16 30 40 72 52 93 11 20 30 53 41 73 25 43 121 187 130 194 3 3 16
20 29 38 29 42 84 77 136 86 49 10 65 22 65 51 0 17 -7 24 -31 29 -43 8 -768
5 -854 -4z m186 -92 c31 -9 43 -20 60 -56 20 -40 21 -49 10 -100 -19 -86 -83
-211 -194 -377 -55 -82 -104 -154 -108 -160 -5 -5 -36 -46 -71 -90 -34 -44
-64 -82 -68 -85 -3 -3 -13 -14 -21 -26 -49 -73 -343 -378 -454 -473 -122 -103
-181 -134 -328 -170 -76 -18 -140 -31 -143 -28 -5 5 58 67 122 120 24 20 33
38 37 72 12 84 58 205 148 390 52 106 137 260 170 307 11 14 19 29 19 32 0 4
32 55 72 114 117 175 233 310 326 379 20 16 45 36 56 45 29 26 155 90 205 104
59 16 114 17 162 2z"/>
<path d="M35618 12469 c-92 -10 -210 -47 -297 -95 -182 -100 -443 -364 -620
-627 -51 -76 -52 -80 -54 -155 -2 -84 -17 -124 -67 -182 -17 -19 -55 -66 -84
-105 -30 -38 -65 -83 -79 -99 -14 -16 -27 -38 -30 -50 -3 -12 -15 -52 -26 -91
-68 -225 -67 -362 3 -407 27 -17 43 -19 116 -14 133 8 208 38 362 142 68 46
207 153 228 174 3 3 39 35 80 70 122 106 282 272 297 310 15 36 62 136 115
248 22 46 35 61 47 58 103 -30 101 -28 101 -55 0 -76 -41 -173 -122 -292 -32
-47 -58 -89 -58 -93 0 -3 -10 -28 -21 -54 -36 -81 -46 -105 -79 -187 -30 -75
-65 -158 -112 -265 -11 -25 -29 -65 -40 -90 -81 -183 -245 -510 -326 -652 -12
-21 -32 -55 -43 -75 -12 -21 -30 -50 -40 -65 -11 -14 -19 -29 -19 -32 0 -7
-160 -248 -170 -256 -3 -3 -17 -21 -30 -40 -65 -94 -195 -247 -304 -356 -282
-282 -659 -498 -966 -555 -36 -7 -130 -13 -210 -13 -167 0 -258 19 -370 81
-246 134 -343 342 -307 656 l8 67 -29 0 c-15 0 -37 -6 -48 -14 -18 -13 -19
-28 -19 -208 0 -175 2 -199 23 -262 106 -315 346 -500 727 -561 275 -44 557
17 850 183 61 35 196 122 205 132 3 4 15 13 27 21 116 79 319 288 450 464 41
55 80 107 87 116 120 149 394 669 533 1009 19 47 43 103 53 125 38 85 59 133
90 205 36 85 61 141 96 218 13 29 24 55 24 57 0 2 11 29 25 60 14 30 36 80 50
110 14 31 25 58 25 60 0 2 14 35 31 72 17 38 42 92 55 121 13 28 35 76 48 105
13 28 36 79 51 112 15 33 46 101 69 150 24 50 51 110 62 134 21 49 166 339
205 410 53 97 172 201 229 201 15 0 41 5 59 11 25 9 31 17 31 39 0 23 -5 29
-31 34 -45 9 -769 5 -861 -5z m196 -93 c111 -46 99 -163 -40 -393 -52 -86
-184 -285 -194 -293 -3 -3 -17 -21 -30 -40 -13 -19 -27 -37 -30 -40 -3 -3 -17
-21 -31 -40 -15 -19 -35 -45 -45 -57 -11 -11 -34 -40 -53 -62 -116 -142 -312
-344 -426 -438 -122 -101 -116 -97 -161 -121 -39 -21 -185 -64 -193 -57 -2 2
5 28 17 57 11 29 25 85 32 123 14 75 41 168 67 225 29 67 93 195 127 255 63
114 79 140 107 182 16 23 29 44 29 48 0 7 136 211 164 246 12 14 32 41 45 60
71 98 258 257 371 315 83 42 186 54 244 30z"/>
<path d="M25867 11845 c-21 -30 -37 -59 -37 -65 0 -5 -4 -10 -10 -10 -5 0 -10
-5 -10 -10 0 -6 -31 -58 -70 -115 -46 -68 -70 -114 -70 -132 1 -27 1 -27 15
-9 8 11 25 31 37 45 52 60 148 192 148 204 0 8 9 42 21 76 11 35 18 65 16 67
-2 2 -20 -20 -40 -51z"/>
<path d="M23195 10070 c-156 -33 -270 -82 -405 -173 -126 -85 -280 -234 -390
-377 -19 -25 -38 -47 -41 -50 -18 -15 -175 -262 -229 -360 -35 -63 -80 -135
-100 -160 -92 -114 -131 -180 -338 -580 -113 -219 -147 -283 -222 -415 -12
-22 -36 -59 -52 -82 l-29 -43 -157 0 c-279 -1 -455 -40 -591 -132 -25 -18 -48
-34 -51 -37 -3 -3 -27 -24 -55 -46 -67 -53 -270 -255 -336 -335 -30 -36 -83
-110 -119 -164 l-64 -98 -1 -82 c-1 -84 -17 -127 -66 -179 -18 -19 -42 -50
-132 -171 -12 -16 -28 -35 -36 -43 -21 -21 -61 -156 -82 -277 -23 -131 -23
-155 -3 -204 24 -62 73 -78 190 -61 95 13 154 34 247 91 149 88 260 174 383
294 64 63 84 91 137 196 50 99 70 128 102 150 39 27 42 28 105 17 35 -5 66
-12 68 -13 9 -10 -112 -204 -178 -286 -81 -100 -137 -298 -108 -385 19 -58 50
-70 178 -70 167 1 276 38 451 156 52 34 96 65 99 68 3 3 27 24 55 46 61 49
253 241 315 315 25 29 50 58 55 64 6 6 36 45 67 86 31 41 71 91 89 110 17 19
35 46 41 60 10 26 3 70 -11 70 -9 0 -55 -50 -151 -161 -78 -92 -414 -430 -453
-456 -18 -13 -42 -31 -53 -40 -39 -36 -140 -100 -182 -116 -53 -21 -85 -21
-122 -2 -28 14 -30 20 -30 71 0 88 55 251 157 464 25 52 57 120 70 150 14 30
62 129 106 220 89 184 147 308 147 314 0 2 35 78 78 168 44 89 86 179 95 198
77 174 428 885 480 974 15 27 46 83 69 125 106 197 133 246 159 283 11 14 19
29 19 32 0 8 156 242 184 277 12 14 32 41 46 59 98 133 244 269 334 310 118
53 335 63 451 20 78 -29 156 -106 175 -173 15 -49 36 -66 56 -45 15 16 38 246
29 291 -11 53 -49 100 -101 127 -67 34 -218 38 -349 10z m-1971 -2359 c65 -61
50 -157 -53 -336 -13 -22 -36 -59 -52 -82 -16 -23 -29 -46 -29 -52 0 -6 -4
-11 -8 -11 -5 0 -15 -12 -23 -27 -8 -16 -16 -30 -19 -33 -3 -3 -30 -41 -60
-85 -46 -69 -162 -220 -180 -235 -3 -3 -13 -14 -21 -26 -58 -86 -348 -385
-452 -467 -94 -75 -194 -137 -219 -137 -12 0 -24 13 -33 34 -8 19 -22 39 -31
44 -14 8 -16 20 -11 64 5 48 42 179 67 233 56 125 144 297 205 400 32 56 225
347 234 355 3 3 19 23 36 45 92 125 288 278 416 326 79 28 197 23 233 -10z"/>
<path d="M18684 7913 c-54 -29 -103 -43 -229 -69 -121 -24 -163 -37 -175 -52
-8 -11 -40 -54 -70 -97 -49 -68 -189 -254 -223 -295 -7 -8 -23 -31 -37 -50
-14 -19 -30 -42 -37 -50 -27 -34 -110 -139 -133 -170 -14 -18 -44 -57 -67 -86
-41 -50 -42 -54 -36 -104 l6 -52 21 24 c12 13 33 39 48 60 15 20 33 42 40 50
7 7 38 43 68 78 30 36 62 73 72 84 9 10 26 44 38 75 29 75 41 103 51 123 5 10
9 22 9 28 0 23 54 90 92 115 22 15 41 25 42 23 2 -2 15 -19 29 -39 55 -73 28
-174 -82 -313 -32 -40 -62 -94 -86 -156 -20 -52 -41 -104 -45 -115 -5 -11 -63
-159 -131 -330 -67 -170 -135 -338 -151 -373 -15 -34 -28 -67 -28 -73 0 -6
-18 -49 -41 -95 -69 -143 -58 -165 60 -119 38 15 97 35 131 44 61 16 63 17 82
65 10 27 28 68 38 92 11 24 29 65 41 92 138 313 306 591 513 847 49 62 212
224 285 285 29 25 59 50 65 55 6 6 31 26 56 44 25 19 71 60 102 92 37 37 63
56 75 54 10 -2 35 -7 56 -10 59 -9 61 -4 -118 -370 -57 -115 -132 -271 -168
-345 -37 -74 -73 -146 -81 -160 -39 -63 -122 -270 -152 -380 -40 -141 -27
-278 31 -336 40 -40 144 -61 231 -45 74 14 247 97 322 155 92 71 247 229 352
356 25 30 56 66 69 80 22 23 32 44 83 160 11 25 26 57 33 73 25 51 9 36 -115
-103 -110 -125 -316 -327 -385 -378 -115 -85 -205 -115 -268 -89 -84 36 -69
148 55 427 11 25 27 61 35 80 40 92 217 446 262 524 28 48 51 89 51 91 0 5 80
135 110 180 82 122 116 250 76 294 -52 57 -215 53 -354 -10 -53 -24 -297 -179
-312 -198 -3 -4 -18 -17 -35 -30 -16 -12 -48 -39 -70 -59 -22 -20 -69 -62
-105 -92 -90 -76 -88 -73 -119 -132 -87 -164 -175 -290 -250 -361 -59 -54 -81
-63 -81 -33 0 7 -10 37 -22 65 -19 46 -20 58 -10 102 16 66 36 95 170 236 62
66 119 130 126 144 7 13 24 44 38 69 14 25 42 75 62 113 19 37 49 87 66 112
16 24 30 46 30 50 0 3 18 33 40 65 66 98 53 116 -46 63z"/>
<path d="M16535 7825 c-5 -2 -43 -10 -82 -20 -116 -26 -222 -76 -318 -149 -93
-71 -266 -245 -365 -366 -25 -30 -47 -57 -51 -60 -13 -11 -155 -229 -200 -307
-44 -76 -127 -241 -163 -324 -73 -168 -128 -437 -106 -517 13 -51 30 -69 79
-82 47 -12 172 3 244 30 131 50 344 201 505 358 65 64 84 91 136 195 49 98 69
127 101 149 39 27 42 28 105 17 35 -5 66 -12 68 -13 10 -10 -114 -208 -180
-287 -21 -26 -38 -52 -38 -58 0 -6 -4 -19 -9 -29 -23 -42 -51 -132 -60 -189
-10 -64 -1 -125 23 -148 26 -27 89 -38 185 -32 182 10 313 68 536 235 67 50
271 253 355 352 30 36 67 79 83 95 18 20 26 37 22 50 -2 11 -5 36 -5 55 l0 35
-23 -25 c-12 -14 -35 -41 -51 -60 -139 -170 -341 -374 -436 -440 -19 -14 -37
-28 -40 -31 -3 -4 -34 -22 -70 -40 -54 -28 -76 -34 -132 -34 -42 0 -72 5 -80
13 -8 8 -13 38 -12 85 0 69 27 168 71 267 98 222 258 539 319 632 13 21 24 39
24 42 0 2 17 33 38 67 21 35 52 89 69 119 120 216 207 320 280 335 13 3 34 7
48 10 25 5 43 44 30 64 -4 8 -148 11 -448 10 -243 0 -446 -2 -452 -4z m253
-118 c17 -16 32 -43 35 -60 9 -67 -34 -185 -119 -317 -22 -36 -61 -96 -85
-134 -23 -38 -48 -74 -54 -80 -6 -6 -26 -33 -45 -61 -36 -54 -209 -271 -269
-338 -185 -208 -374 -380 -503 -459 -80 -49 -95 -49 -115 2 -9 22 -22 40 -30
40 -8 0 -13 12 -13 35 0 111 145 454 290 681 267 422 346 513 566 652 86 54
148 73 236 70 69 -3 80 -6 106 -31z"/>
<path d="M29680 6334 c-162 -28 -229 -48 -343 -105 -44 -22 -104 -59 -135 -83
-57 -44 -175 -162 -203 -202 -8 -12 -34 -45 -59 -74 -25 -29 -51 -60 -58 -69
-12 -14 -13 -13 -8 9 24 119 47 292 42 323 -14 83 -81 139 -192 157 -102 17
-351 -19 -519 -75 -166 -55 -392 -180 -503 -278 -147 -130 -237 -233 -327
-372 -32 -49 -91 -141 -132 -202 -40 -62 -73 -116 -73 -119 0 -3 -8 -18 -19
-32 -10 -15 -40 -67 -66 -117 -26 -49 -59 -110 -73 -135 -56 -100 -381 -751
-402 -807 l-23 -59 -82 -11 c-86 -12 -206 -62 -253 -106 -26 -24 -54 -72 -46
-79 2 -3 29 -1 60 4 31 5 105 7 165 6 l108 -3 -47 -96 c-26 -53 -56 -116 -66
-140 -11 -24 -31 -71 -46 -104 -15 -33 -55 -132 -89 -220 -35 -88 -66 -169
-71 -180 -4 -11 -17 -45 -28 -75 -11 -30 -28 -75 -37 -100 -9 -25 -25 -70 -35
-100 -24 -72 -70 -195 -110 -295 -39 -99 -40 -100 -127 -295 -36 -80 -120
-248 -147 -295 -12 -22 -37 -66 -54 -99 -18 -32 -46 -78 -62 -101 -17 -24 -30
-46 -30 -50 0 -6 -170 -262 -194 -293 -55 -69 -135 -161 -157 -182 -99 -93
-186 -160 -289 -222 -113 -68 -128 -75 -241 -104 -189 -49 -433 -34 -585 37
-228 107 -340 288 -305 495 7 41 19 90 27 109 17 41 18 81 3 90 -5 4 -21 4
-33 1 -24 -6 -25 -9 -111 -231 -55 -144 -58 -158 -59 -266 -1 -93 2 -111 24
-154 74 -145 246 -242 483 -274 180 -25 404 -5 555 50 54 19 173 77 182 88 3
3 20 16 38 29 l33 24 52 -50 c102 -96 242 -140 472 -149 242 -10 467 39 665
145 70 38 259 166 315 213 55 47 236 227 275 274 62 75 110 135 157 195 64 83
260 378 300 450 16 30 45 80 63 110 29 50 262 519 305 615 9 22 30 67 45 100
16 33 38 85 50 115 21 53 28 71 63 150 8 19 32 78 52 130 20 52 40 104 45 115
4 11 12 31 18 45 6 14 52 131 103 261 l93 235 186 13 c210 15 327 31 423 61
73 23 127 61 127 91 0 18 -14 19 -355 21 l-355 3 53 80 c83 123 118 194 222
440 7 17 22 51 34 77 11 26 21 50 21 53 0 2 14 34 30 70 17 36 30 68 30 70 0
7 85 195 148 325 105 217 298 505 427 635 255 257 578 363 800 261 89 -40 132
-90 174 -198 7 -19 15 -25 29 -22 16 5 20 22 30 118 22 214 13 246 -88 301
-50 27 -64 30 -160 31 -58 1 -116 0 -130 -2z m-1094 -198 c118 -31 228 -117
252 -196 11 -38 11 -44 -5 -59 -10 -9 -43 -45 -73 -81 -30 -36 -57 -67 -60
-70 -17 -17 -96 -128 -142 -200 -112 -174 -128 -200 -128 -206 0 -3 -8 -18
-18 -32 -11 -15 -32 -52 -49 -82 -17 -30 -40 -73 -53 -95 -12 -22 -47 -86 -76
-142 -30 -57 -79 -151 -110 -210 -150 -286 -314 -629 -314 -658 0 -13 -63 -15
-470 -15 -311 0 -470 3 -470 10 0 6 4 18 10 28 5 9 39 80 76 157 37 77 92 194
124 260 55 114 72 151 121 263 12 26 38 83 59 127 21 44 48 103 60 130 65 149
188 385 241 462 16 23 29 46 29 51 0 6 3 12 8 14 4 2 27 32 51 68 84 122 194
244 279 307 20 15 39 30 42 33 19 19 97 64 160 93 66 31 115 45 210 61 43 8
193 -3 246 -18z m-829 -2233 c-8 -13 -113 -235 -136 -285 -11 -27 -30 -67 -40
-90 -25 -56 -121 -296 -131 -328 -5 -14 -22 -63 -40 -110 -17 -47 -40 -110
-50 -140 -37 -111 -147 -395 -196 -507 -8 -18 -20 -48 -28 -65 -61 -139 -139
-300 -185 -380 -78 -139 -94 -165 -141 -243 -63 -102 -156 -241 -214 -315 -57
-75 -190 -210 -256 -260 -25 -19 -47 -37 -50 -40 -16 -18 -171 -114 -233 -143
-162 -78 -454 -97 -662 -42 -57 15 -245 103 -245 115 0 3 44 34 97 70 87 58
248 204 314 285 88 108 300 404 307 427 2 10 8 18 13 18 5 0 9 5 9 11 0 6 13
29 28 52 16 23 42 67 59 97 16 30 42 75 57 100 26 44 276 546 311 625 9 22 33
72 51 112 19 40 34 75 34 77 0 3 11 29 24 58 14 30 34 78 46 107 11 30 30 73
40 96 10 23 28 66 40 95 12 29 29 72 40 94 10 23 44 106 75 186 31 80 61 154
65 165 5 11 21 53 36 93 l27 72 469 0 c258 0 467 -3 465 -7z"/>
<path d="M26715 6109 c-136 -15 -368 -102 -472 -178 l-43 -31 -542 0 c-950 0
-1276 -29 -1628 -142 -162 -52 -341 -154 -421 -240 -80 -84 -139 -227 -139
-333 0 -132 64 -302 139 -369 19 -17 26 -18 61 -7 21 6 46 19 55 28 16 15 15
17 -8 32 -43 25 -52 55 -51 165 0 81 5 113 24 161 112 290 423 453 987 520
132 15 886 40 903 30 6 -3 10 -15 10 -27 0 -12 5 -18 13 -15 189 81 257 105
257 94 0 -1 9 -27 19 -57 l19 -55 -53 -52 c-67 -66 -127 -154 -227 -333 -14
-25 -50 -88 -80 -140 -30 -52 -67 -116 -82 -142 -14 -27 -37 -68 -51 -93 -14
-25 -36 -65 -50 -90 -14 -25 -36 -65 -50 -90 -14 -25 -36 -65 -50 -90 -14 -25
-36 -64 -49 -87 -22 -41 -41 -76 -120 -220 -39 -72 -44 -90 -20 -81 12 4 14 0
8 -23 -14 -58 -73 -233 -93 -277 -36 -78 -109 -164 -174 -205 -17 -10 -40 -42
-57 -77 -43 -93 -80 -175 -80 -180 0 -13 -76 -175 -120 -254 -16 -29 -34 -65
-39 -80 -107 -274 -125 -353 -125 -556 0 -178 16 -234 86 -302 90 -87 201
-123 329 -105 237 34 468 186 715 472 22 24 48 54 59 66 41 44 184 230 243
316 35 51 41 83 16 92 -27 10 -52 -9 -104 -84 -13 -19 -27 -37 -30 -40 -3 -3
-17 -21 -30 -40 -13 -19 -27 -37 -30 -40 -3 -3 -13 -15 -22 -28 -44 -65 -291
-325 -373 -392 -76 -62 -177 -128 -245 -160 -60 -28 -87 -35 -136 -35 -71 0
-84 9 -113 70 -38 81 -25 236 38 435 41 131 116 333 131 355 4 6 17 39 29 75
20 58 422 877 504 1025 18 33 56 103 85 156 28 53 65 120 82 148 16 29 30 54
30 56 0 2 23 42 50 90 28 48 50 88 50 90 0 2 23 40 50 85 28 45 50 84 50 86 0
3 18 32 40 64 22 32 40 62 40 65 0 3 18 33 40 65 22 32 40 62 40 65 0 3 18 33
40 65 22 32 40 64 40 69 0 6 5 11 10 11 6 0 10 5 10 10 0 9 86 143 112 175 5
6 36 48 70 95 83 115 240 270 302 299 34 15 82 26 149 32 94 9 137 21 137 37
0 15 -16 29 -45 39 -50 18 -58 19 -120 12z"/>
<path d="M6185 5923 c-350 -30 -773 -163 -1035 -325 -72 -45 -79 -50 -154
-111 -39 -31 -105 -81 -146 -109 -41 -28 -77 -54 -80 -58 -3 -3 -21 -17 -40
-30 -19 -13 -37 -27 -40 -30 -3 -3 -25 -21 -50 -40 -124 -96 -344 -315 -440
-440 -19 -25 -38 -47 -41 -50 -13 -11 -194 -288 -226 -345 -32 -58 -135 -267
-154 -312 -5 -13 -14 -35 -20 -50 -7 -16 -16 -37 -20 -48 -29 -67 -84 -257
-104 -355 -62 -308 -58 -640 11 -850 48 -144 126 -254 275 -385 228 -203 619
-315 1091 -315 450 0 921 113 1323 318 108 55 358 209 375 231 3 4 21 18 40
31 89 62 318 290 325 324 2 12 6 47 9 79 l5 59 -78 -79 c-90 -90 -148 -144
-211 -193 -25 -19 -47 -37 -50 -41 -8 -9 -149 -102 -232 -152 -295 -179 -739
-337 -1108 -394 -160 -24 -488 -24 -620 0 -327 60 -518 171 -667 388 -94 136
-135 298 -135 534 -1 270 53 524 173 823 5 12 13 32 18 45 21 51 163 336 191
382 17 28 33 57 37 65 8 19 164 253 173 260 3 3 17 21 30 40 13 19 27 37 30
40 3 3 13 14 21 26 64 94 334 379 438 462 25 21 52 43 59 50 25 23 137 100
222 152 220 135 446 224 703 277 170 35 418 39 532 9 171 -45 262 -128 322
-291 15 -41 18 -80 17 -215 0 -147 -3 -176 -27 -270 -16 -58 -39 -127 -52
-153 -19 -40 -21 -49 -9 -54 32 -12 124 33 124 61 0 23 94 199 156 291 79 118
104 174 111 250 9 104 -15 165 -102 251 -130 129 -351 218 -604 244 -97 9
-275 11 -366 3z"/>
<path d="M25293 5585 c-81 -31 -217 -110 -292 -171 -200 -159 -321 -275 -612
-584 -165 -176 -487 -500 -664 -668 l-129 -123 -375 7 c-488 9 -617 -5 -928
-102 -320 -99 -607 -232 -713 -330 -59 -55 -73 -87 -74 -169 0 -115 26 -145
142 -158 l42 -5 0 76 c1 70 15 154 36 207 33 85 127 178 224 222 128 58 446
83 815 64 116 -6 326 -16 468 -23 141 -6 257 -15 257 -20 0 -4 -4 -8 -9 -8 -5
0 -16 -6 -23 -13 -7 -6 -49 -37 -93 -66 -80 -55 -377 -265 -405 -288 -8 -7
-44 -33 -80 -60 -36 -26 -67 -50 -70 -53 -3 -3 -21 -17 -40 -30 -19 -14 -44
-32 -55 -41 -11 -10 -69 -56 -130 -103 -60 -48 -119 -94 -130 -103 -11 -10
-67 -51 -125 -93 -360 -259 -671 -433 -911 -511 -177 -57 -383 -82 -500 -60
-212 40 -308 196 -255 411 18 72 46 153 57 164 12 13 12 86 -1 86 -32 0 -101
-130 -167 -315 -26 -73 -28 -92 -28 -220 0 -126 2 -145 23 -186 55 -111 187
-198 335 -221 131 -20 365 11 557 74 139 45 362 146 508 230 46 26 85 48 87
48 15 0 330 220 425 297 8 6 53 42 100 80 47 37 91 73 98 80 7 6 34 29 60 50
26 21 49 40 52 43 3 3 43 39 90 80 47 41 92 82 100 90 8 8 53 49 100 89 47 41
191 181 321 310 l236 236 459 1 c441 0 482 2 585 30 13 4 119 188 119 207 0 2
-44 -5 -97 -17 -91 -19 -127 -20 -522 -19 -233 2 -426 5 -429 7 -5 6 7 18 70
69 26 21 53 43 60 50 7 7 42 37 78 67 142 120 397 373 494 490 26 32 79 91
251 279 102 112 337 345 390 387 28 21 52 41 55 45 3 3 34 25 70 50 36 24 71
50 78 57 7 6 17 12 22 12 5 0 15 6 22 13 7 7 34 25 61 40 26 15 47 30 47 32 0
13 -83 1 -137 -20z"/>
<path d="M19662 5216 c-77 -71 -212 -149 -337 -196 -25 -8 -38 -26 -65 -83
-101 -217 -242 -488 -290 -557 -9 -14 -19 -30 -21 -36 -2 -6 -40 -66 -84 -133
l-80 -121 -140 0 c-149 0 -169 -5 -234 -64 -26 -23 -103 -137 -97 -143 2 -2
63 3 135 12 72 9 135 13 141 10 5 -3 10 -21 10 -38 0 -56 13 -61 46 -17 34 47
46 49 70 13 9 -15 26 -36 36 -47 35 -38 14 -152 -40 -212 -9 -11 -42 -49 -72
-84 -30 -36 -63 -74 -72 -84 -10 -11 -18 -23 -18 -28 0 -4 -11 -31 -24 -60
-13 -29 -34 -75 -46 -103 -12 -27 -51 -111 -87 -185 -86 -179 -127 -264 -153
-325 -12 -27 -31 -70 -42 -94 -70 -155 -89 -311 -44 -355 69 -70 302 -49 486
44 87 44 221 140 339 245 97 85 308 309 372 395 15 19 39 49 53 65 50 58 82
154 57 170 -5 3 -31 -18 -58 -46 -62 -67 -63 -68 -97 -109 -91 -112 -294 -323
-404 -419 -245 -215 -377 -252 -422 -117 -36 110 97 564 287 976 63 137 166
340 172 340 4 0 14 13 24 29 35 60 203 110 367 111 100 0 340 64 340 91 0 20
-46 24 -348 29 l-322 5 40 55 c23 30 47 62 54 71 36 44 161 238 218 339 11 19
29 47 39 62 11 14 19 29 19 33 0 3 14 26 30 50 17 24 30 46 30 49 0 5 130 208
148 231 4 6 20 31 35 57 15 26 33 53 40 60 7 7 24 29 37 48 13 19 28 37 32 40
4 4 11 20 14 38 9 46 -16 42 -74 -12z"/>
<path d="M31920 5155 c-83 -26 -150 -112 -150 -192 0 -48 36 -109 76 -128 72
-34 188 -13 261 49 76 64 90 180 29 242 -43 42 -133 54 -216 29z"/>
<path d="M11135 4180 c-51 -35 -93 -49 -224 -75 -195 -40 -192 -39 -225 -90
-16 -26 -34 -51 -40 -58 -7 -7 -32 -41 -56 -77 -24 -36 -46 -67 -50 -70 -3 -3
-17 -21 -30 -40 -14 -19 -30 -42 -37 -50 -23 -29 -108 -137 -133 -170 -14 -18
-32 -41 -40 -50 -36 -43 -47 -57 -70 -90 -13 -19 -27 -37 -30 -40 -3 -3 -24
-30 -47 -60 -37 -49 -41 -61 -40 -107 0 -29 3 -53 7 -53 3 0 14 12 25 26 10
14 26 33 34 43 9 10 27 33 41 52 25 33 72 88 122 144 16 16 35 45 43 63 18 38
44 99 55 127 36 94 72 151 110 173 l40 22 28 -30 c37 -39 46 -97 25 -159 -15
-43 -61 -119 -90 -149 -39 -40 -66 -92 -123 -237 -34 -88 -71 -179 -81 -202
-10 -24 -19 -49 -19 -56 0 -7 -4 -17 -8 -22 -4 -6 -14 -28 -21 -50 -8 -22 -23
-60 -34 -85 -38 -87 -46 -106 -67 -160 -12 -30 -27 -68 -35 -85 -16 -38 -42
-107 -61 -162 -8 -23 -32 -76 -54 -117 -63 -119 -52 -138 60 -95 73 28 150 49
178 49 14 0 26 8 31 23 5 12 32 81 59 152 146 380 178 454 263 601 161 280
403 567 643 761 105 85 165 113 236 112 136 -1 196 -107 188 -332 -3 -114 -3
-115 48 -97 21 8 36 26 57 68 15 31 41 83 58 114 54 100 72 205 48 279 -30 91
-66 141 -130 176 -50 27 -195 24 -269 -5 -67 -26 -226 -128 -283 -181 -84 -78
-102 -97 -115 -120 -8 -13 -23 -40 -34 -60 -12 -20 -33 -58 -48 -86 -47 -87
-71 -127 -111 -186 -41 -62 -147 -169 -165 -169 -6 0 -24 28 -39 61 -32 72
-31 128 6 196 29 55 137 188 233 287 42 43 95 109 116 147 22 37 55 87 74 112
42 55 56 107 29 107 -10 0 -31 -9 -48 -20z"/>
<path d="M13092 4180 c-36 -30 -115 -55 -273 -85 -144 -28 -145 -28 -169 -64
-23 -36 -279 -382 -290 -391 -3 -3 -25 -32 -50 -65 -25 -33 -50 -66 -57 -75
-67 -85 -112 -142 -133 -170 -28 -37 -72 -92 -80 -100 -3 -3 -17 -21 -31 -40
-15 -19 -38 -48 -52 -64 -14 -16 -28 -42 -31 -59 -17 -84 4 -100 50 -40 16 20
40 50 54 67 29 36 33 40 100 126 57 71 117 143 167 199 18 20 46 72 63 116 57
146 92 207 138 239 l42 30 36 -35 c34 -32 36 -37 32 -89 -7 -82 -55 -173 -143
-268 -13 -14 -35 -56 -50 -96 -15 -39 -40 -107 -57 -151 -17 -44 -36 -93 -43
-110 -14 -31 -84 -209 -138 -350 -16 -44 -33 -84 -37 -90 -4 -5 -22 -48 -40
-95 -18 -47 -37 -89 -42 -94 -4 -6 -8 -16 -8 -23 0 -7 -18 -52 -40 -99 -42
-90 -50 -134 -26 -134 8 0 51 13 95 30 44 16 103 32 131 36 57 7 61 12 89 102
11 31 35 100 56 152 20 52 51 131 68 175 28 74 133 287 186 380 44 76 183 277
211 305 3 3 30 34 60 70 184 219 364 383 488 445 67 33 145 34 193 2 75 -50
117 -184 104 -334 l-7 -86 28 7 c43 11 55 25 117 148 40 79 61 133 68 178 38
242 -118 386 -354 325 -151 -39 -388 -214 -454 -335 -17 -30 -43 -77 -58 -105
-15 -27 -39 -70 -52 -93 -50 -92 -124 -191 -175 -236 -29 -25 -55 -46 -58 -46
-3 0 -20 25 -38 56 -39 67 -41 115 -10 182 34 72 123 182 273 337 33 34 67 75
75 91 8 16 41 69 72 118 32 48 58 97 58 107 0 25 -28 24 -58 -1z"/>
<path d="M16809 4165 c-49 -26 -104 -42 -220 -65 -172 -35 -165 -31 -239 -140
-24 -36 -46 -67 -50 -70 -3 -3 -17 -21 -30 -40 -13 -19 -27 -37 -30 -40 -3 -3
-48 -61 -99 -130 -96 -127 -148 -195 -166 -216 -5 -7 -35 -44 -65 -84 -30 -39
-67 -86 -82 -103 -25 -29 -27 -37 -21 -82 3 -27 7 -51 8 -53 1 -1 45 50 98
115 52 65 113 138 135 163 22 25 46 63 53 85 7 22 16 44 21 50 4 5 8 15 8 22
0 18 38 100 69 146 13 21 41 47 62 57 l37 19 31 -36 c36 -42 39 -78 15 -150
-17 -50 -78 -147 -124 -198 -15 -16 -50 -88 -78 -160 -27 -71 -67 -173 -87
-225 -20 -52 -43 -108 -50 -125 -7 -16 -34 -84 -60 -150 -26 -66 -53 -135 -61
-152 -8 -18 -20 -48 -28 -65 -8 -18 -26 -64 -41 -103 -15 -38 -41 -99 -57
-135 -17 -36 -33 -82 -36 -103 -5 -38 -4 -38 24 -31 16 4 45 13 64 21 63 26
114 42 157 49 24 3 46 12 51 18 5 6 28 61 52 121 49 123 200 429 262 533 109
178 265 397 343 478 11 12 36 39 56 60 38 42 179 171 226 206 15 12 30 25 33
28 3 3 25 21 50 40 25 18 69 57 97 87 l53 53 60 -7 c62 -6 70 -14 51 -51 -5
-9 -13 -28 -19 -42 -5 -14 -59 -126 -120 -250 -61 -124 -138 -283 -171 -355
-34 -71 -66 -137 -71 -145 -22 -32 -98 -197 -129 -280 -51 -137 -56 -163 -56
-280 0 -132 13 -170 71 -209 53 -36 175 -41 264 -11 215 72 369 202 683 578
l127 153 0 56 0 57 -32 -35 c-18 -19 -64 -70 -103 -114 -98 -111 -299 -309
-365 -360 -103 -79 -194 -114 -265 -101 -100 19 -87 147 45 441 10 22 28 63
40 90 12 28 62 131 111 230 82 165 117 232 177 338 12 20 31 52 41 71 11 18
38 64 62 102 138 225 153 321 53 354 -50 17 -207 7 -259 -15 -90 -38 -115 -52
-230 -128 -66 -44 -122 -83 -125 -86 -3 -3 -26 -23 -52 -44 -26 -21 -53 -43
-60 -50 -7 -7 -42 -37 -78 -67 -101 -86 -122 -110 -159 -180 -19 -36 -42 -77
-53 -92 -10 -14 -18 -29 -18 -33 0 -26 -125 -180 -189 -234 l-48 -40 -21 63
c-48 138 -29 183 153 371 91 94 112 121 152 195 80 147 97 177 115 202 10 14
18 29 18 32 0 4 25 43 55 89 53 78 69 128 43 126 -7 0 -43 -16 -79 -34z"/>
<path d="M31669 4165 c-48 -25 -105 -42 -214 -65 -82 -16 -152 -30 -157 -30
-4 0 -22 -21 -39 -47 -43 -63 -163 -225 -214 -289 -22 -28 -51 -66 -65 -84
-14 -18 -54 -70 -90 -116 -36 -45 -90 -114 -120 -154 -30 -39 -65 -84 -77 -98
-18 -21 -23 -39 -23 -86 0 -68 -5 -70 80 34 25 30 47 57 50 60 3 3 25 30 50
60 25 30 47 57 50 60 6 5 22 38 60 125 42 97 91 187 113 208 50 49 52 50 95
28 34 -17 41 -27 47 -61 9 -51 -1 -94 -32 -150 -24 -41 -104 -146 -149 -195
-11 -11 -24 -31 -30 -45 -11 -24 -41 -88 -131 -280 -25 -52 -67 -140 -93 -195
-113 -235 -143 -313 -159 -417 -17 -120 14 -169 118 -183 58 -8 202 10 279 34
86 28 245 111 272 142 3 3 12 10 21 15 73 41 265 230 429 424 30 36 60 71 67
78 7 7 12 41 12 80 l0 67 -41 -45 c-22 -25 -72 -81 -112 -125 -313 -351 -533
-513 -646 -473 -72 25 -72 112 0 298 11 30 26 69 32 85 15 41 406 809 475 935
17 30 45 82 63 115 48 88 105 184 139 235 32 46 41 90 19 89 -7 0 -43 -15 -79
-34z"/>
<path d="M33115 4180 c-52 -36 -92 -49 -248 -81 -84 -17 -158 -36 -166 -42 -7
-6 -36 -45 -64 -87 -28 -41 -53 -77 -57 -80 -3 -3 -17 -21 -30 -40 -13 -19
-27 -37 -30 -40 -3 -3 -17 -21 -30 -40 -14 -19 -30 -42 -37 -50 -23 -29 -108
-137 -133 -170 -14 -18 -32 -41 -40 -50 -36 -43 -47 -57 -70 -90 -13 -19 -27
-37 -30 -40 -3 -3 -24 -30 -47 -60 -38 -50 -42 -61 -41 -108 1 -28 4 -52 7
-52 4 0 15 12 26 26 10 14 26 33 34 43 9 10 27 33 41 52 25 33 72 88 122 144
16 16 35 45 43 63 18 38 44 99 55 127 36 94 72 151 110 173 l40 22 28 -30 c37
-39 46 -97 25 -159 -15 -43 -61 -119 -90 -149 -39 -40 -66 -92 -123 -237 -34
-88 -71 -179 -81 -202 -10 -24 -19 -49 -19 -56 0 -7 -4 -17 -8 -22 -4 -6 -14
-28 -21 -50 -8 -22 -23 -60 -34 -85 -38 -87 -46 -106 -67 -160 -12 -30 -27
-68 -35 -85 -26 -61 -55 -138 -55 -147 0 -5 -20 -51 -44 -101 -25 -51 -48
-104 -51 -119 -6 -25 -4 -28 17 -28 13 0 48 9 78 21 73 28 150 49 178 49 14 0
26 8 31 23 5 12 32 81 59 152 171 446 219 547 353 746 156 233 358 458 553
616 102 82 165 113 232 113 66 0 107 -21 142 -73 40 -59 53 -123 51 -249 -1
-60 1 -111 4 -114 3 -3 21 -1 39 5 26 9 39 23 61 69 15 31 41 83 58 114 54
100 72 205 48 279 -30 91 -66 141 -130 176 -50 27 -195 24 -269 -5 -67 -26
-226 -128 -283 -181 -84 -78 -102 -97 -115 -120 -8 -13 -23 -40 -34 -60 -12
-20 -33 -58 -48 -86 -47 -87 -71 -127 -111 -186 -41 -62 -147 -169 -165 -169
-6 0 -24 28 -39 61 -32 72 -31 128 6 196 29 55 137 188 233 287 42 43 95 109
116 147 22 37 56 88 75 114 44 57 57 105 29 105 -11 0 -32 -9 -49 -20z"/>
<path d="M34860 4130 c-100 -17 -229 -84 -303 -156 -41 -40 -187 -242 -187
-259 0 -3 -15 -29 -34 -57 l-35 -51 21 -51 c11 -28 27 -78 35 -111 33 -129 93
-226 208 -339 70 -69 127 -151 172 -246 96 -202 95 -314 -1 -460 -39 -58 -45
-64 -92 -88 -111 -57 -384 -70 -489 -23 -81 36 -178 114 -225 181 -13 19 -27
37 -30 40 -3 3 -17 28 -30 55 -34 71 -40 219 -12 290 22 58 19 75 -12 75 -31
0 -66 -37 -104 -107 -66 -126 -81 -302 -32 -388 60 -106 87 -131 205 -190 131
-66 247 -88 430 -82 231 8 361 63 515 217 87 87 134 156 172 251 18 44 22 76
22 179 1 111 -2 132 -23 185 -52 127 -116 214 -289 394 -172 178 -215 307
-149 449 40 86 173 172 266 172 61 0 141 -29 176 -63 73 -72 122 -237 109
-368 -7 -78 -2 -83 52 -50 25 15 39 39 72 122 57 146 66 192 52 270 -20 107
-53 148 -144 179 -107 35 -223 46 -316 30z"/>
<path d="M9575 4088 c-43 -14 -100 -21 -200 -25 -158 -6 -193 -17 -214 -65
-19 -46 -51 -110 -101 -203 -85 -159 -113 -210 -132 -237 -10 -14 -18 -29 -18
-32 0 -6 -32 -56 -158 -250 l-64 -99 50 7 c57 7 58 6 68 -79 6 -50 -3 -98 -29
-155 -15 -33 -100 -160 -124 -185 -35 -37 -81 -180 -99 -308 -7 -55 9 -126 37
-155 18 -21 90 -45 165 -57 51 -8 185 10 263 35 209 66 498 295 743 587 l76
92 1 68 0 68 -52 -60 c-88 -100 -230 -237 -337 -325 -30 -25 -63 -53 -75 -63
-11 -10 -58 -44 -105 -76 -179 -121 -264 -155 -319 -127 -49 26 -64 60 -63
151 1 117 53 316 142 540 59 150 181 405 241 502 21 36 39 67 39 70 0 5 61 95
69 103 4 3 19 23 36 45 57 77 130 142 192 169 52 24 83 54 83 81 0 11 -59 2
-115 -17z"/>
<path d="M15040 4095 c-124 -26 -201 -59 -362 -157 -163 -99 -366 -277 -488
-428 -25 -30 -47 -57 -51 -60 -51 -44 -292 -510 -328 -635 -62 -217 -45 -367
56 -484 139 -163 591 -162 918 1 88 44 291 177 370 242 106 87 233 210 335
322 55 61 55 62 52 119 l-4 57 -151 -149 c-321 -315 -495 -435 -750 -518 -234
-75 -386 -68 -463 22 -71 83 -64 295 17 554 l21 66 106 12 c112 13 339 59 413
84 260 89 497 214 603 320 34 34 84 106 103 147 42 93 55 238 28 322 -18 57
-66 118 -114 142 -70 36 -197 44 -311 21z m104 -122 c39 -28 51 -69 51 -168 0
-72 -5 -102 -24 -150 -29 -71 -104 -186 -155 -237 -90 -90 -270 -178 -438
-214 -40 -8 -145 -18 -232 -21 l-160 -6 36 39 c69 74 98 109 126 149 15 22 30
42 35 43 4 2 7 8 7 13 0 13 133 211 183 274 57 70 174 185 222 217 121 82 283
110 349 61z"/>
<path d="M8192 4089 c-55 -10 -141 -49 -177 -80 -123 -104 -449 -456 -555
-599 -14 -18 -34 -45 -45 -59 -17 -22 -19 -36 -15 -86 l5 -59 40 48 c59 72
144 164 290 314 72 73 138 147 147 163 9 17 19 33 21 35 9 9 117 -27 117 -39
0 -11 -11 -35 -248 -517 -77 -157 -156 -319 -175 -360 -19 -41 -49 -106 -67
-144 -50 -107 -79 -193 -91 -275 -14 -93 0 -140 53 -167 49 -26 189 -24 292 5
107 29 267 114 376 198 116 89 311 274 345 327 17 26 88 237 82 242 -2 3 -30
-28 -62 -67 -221 -273 -482 -502 -603 -528 -75 -16 -119 1 -132 51 -6 21 -8
55 -5 76 8 48 50 172 81 242 14 30 37 82 52 115 33 73 142 288 207 410 46 87
61 112 106 193 12 20 36 62 52 92 17 30 47 80 67 110 86 131 124 242 106 313
-9 38 -61 57 -148 56 -40 -1 -92 -5 -116 -10z"/>
<path d="M29540 4079 c-182 -21 -356 -110 -519 -263 -107 -101 -211 -211 -253
-268 -15 -20 -34 -42 -41 -50 -7 -7 -24 -29 -37 -48 -13 -19 -27 -37 -30 -40
-9 -7 -110 -158 -110 -164 0 -2 -17 -33 -38 -67 -21 -35 -52 -93 -69 -129
-118 -247 -151 -340 -189 -524 -21 -102 -23 -128 -14 -170 18 -85 46 -106 137
-106 125 0 245 47 418 163 49 33 92 63 95 66 3 3 27 24 55 46 27 22 85 74 127
116 68 66 86 92 138 196 43 88 69 128 96 148 33 26 40 27 102 20 37 -4 70 -9
74 -11 14 -9 -135 -252 -189 -309 -20 -22 -50 -80 -65 -129 -76 -245 -42 -313
153 -309 183 3 370 83 574 246 71 57 276 266 368 375 76 92 77 93 77 149 0 32
-4 53 -9 48 -4 -6 -44 -50 -87 -100 -195 -223 -319 -347 -423 -424 -123 -91
-209 -121 -284 -99 -32 10 -39 17 -48 51 -24 90 20 213 217 612 93 189 179
350 253 473 17 29 31 55 31 57 0 2 22 39 50 82 142 222 194 276 277 289 34 5
47 12 56 31 21 47 16 48 -416 49 -221 1 -436 -2 -477 -7z m222 -99 c15 -7 35
-29 44 -48 39 -83 -11 -205 -199 -487 -116 -174 -222 -313 -350 -460 -65 -75
-279 -291 -337 -340 -119 -102 -248 -183 -270 -170 -6 4 -17 22 -25 41 -8 20
-21 34 -31 34 -15 0 -16 8 -10 63 13 129 137 406 311 692 46 75 193 295 204
305 4 3 19 23 35 45 76 104 278 268 383 312 81 33 187 39 245 13z"/>
<path d="M18529 3723 c-25 -27 -58 -66 -74 -88 -17 -22 -32 -42 -35 -45 -12
-12 -130 -179 -130 -185 0 -3 -32 -53 -71 -111 -51 -76 -69 -112 -67 -131 3
-25 8 -21 62 48 33 41 62 76 65 79 4 3 22 25 41 50 53 68 62 80 97 119 17 20
43 63 58 96 15 33 34 76 43 95 9 19 27 52 40 73 36 55 22 55 -29 0z"/>
<path d="M34172 3423 c-17 -21 -52 -67 -79 -103 -26 -36 -58 -76 -71 -90 -30
-33 -72 -118 -72 -147 0 -34 34 -29 61 10 13 17 26 34 29 37 3 3 25 30 50 60
25 30 47 57 51 60 3 3 20 27 38 53 35 51 50 113 34 142 -9 15 -14 12 -41 -22z"/>
</g>
</svg>

