<?xml version="1.0" standalone="no"?>
<!DOCTYPE svg PUBLIC "-//W3C//DTD SVG 20010904//EN"
 "http://www.w3.org/TR/2001/REC-SVG-20010904/DTD/svg10.dtd">
<svg version="1.0" xmlns="http://www.w3.org/2000/svg"
 width="3891.000000pt" height="720.000000pt" viewBox="0 0 3891.000000 720.000000"
 preserveAspectRatio="xMidYMid meet">
<metadata>
Created by Mani Mishra
</metadata>
<g transform="translate(0.000000,720.000000) scale(0.100000,-0.100000)"
font-weight="bold" fill="rgb(230,0,115)" stroke="rgb(35,187,166)" stroke-width="50">
<path d="M33625 6593 c-89 -8 -277 -44 -371 -71 -202 -59 -410 -156 -619 -291
-65 -42 -256 -182 -281 -206 -6 -5 -48 -44 -94 -85 -46 -41 -88 -80 -94 -85
-6 -6 -31 -26 -56 -45 -117 -90 -328 -304 -450 -456 -102 -126 -121 -153 -252
-344 -39 -58 -75 -109 -80 -115 -17 -21 -168 -256 -168 -261 0 -3 -13 -25 -30
-49 -16 -24 -30 -46 -30 -48 0 -3 -17 -34 -38 -68 -111 -183 -309 -571 -432
-844 -12 -27 -33 -74 -46 -103 -13 -29 -24 -55 -24 -57 0 -2 -11 -28 -24 -57
-14 -30 -34 -78 -46 -108 -12 -30 -79 -170 -148 -311 -70 -140 -139 -282 -154
-315 -15 -32 -40 -89 -57 -127 -17 -37 -31 -70 -31 -72 0 -2 -13 -33 -28 -67
-16 -35 -70 -169 -121 -298 -51 -129 -98 -246 -103 -260 -6 -14 -15 -35 -19
-47 -5 -13 -13 -33 -18 -45 -11 -31 -26 -66 -44 -108 -9 -19 -30 -71 -47 -115
-18 -44 -40 -98 -50 -120 -9 -22 -36 -85 -60 -140 -23 -55 -53 -124 -66 -153
-50 -109 -24 -146 100 -145 84 1 191 25 257 58 54 28 60 35 83 100 10 28 26
69 37 92 10 24 19 45 19 49 0 7 90 187 118 237 12 20 32 54 43 75 12 20 30 49
40 64 11 14 19 31 19 37 0 6 5 11 10 11 6 0 10 5 10 11 0 10 57 99 70 109 4 3
26 34 50 70 24 36 46 67 50 70 3 3 17 21 30 40 14 19 30 42 37 50 7 8 53 67
103 130 144 180 267 316 490 540 85 86 175 171 200 190 25 19 47 37 50 40 3 4
25 20 50 37 53 36 120 100 136 128 10 19 11 19 80 -2 47 -14 70 -26 72 -38 2
-9 -12 -49 -31 -89 -19 -39 -45 -93 -57 -121 -12 -27 -102 -212 -200 -410 -98
-198 -191 -389 -208 -425 -17 -36 -53 -112 -80 -170 -67 -142 -82 -177 -136
-305 -26 -60 -51 -119 -56 -130 -44 -95 -61 -234 -40 -311 33 -118 145 -169
365 -169 151 1 226 17 354 76 138 64 263 161 466 362 77 76 155 157 173 181
18 24 45 56 60 72 15 16 47 54 72 84 25 30 56 67 70 83 13 15 43 54 67 85 41
55 43 60 43 128 0 39 3 87 6 105 l5 34 -21 -25 c-12 -14 -36 -41 -53 -60 -46
-51 -158 -180 -187 -215 -41 -50 -321 -328 -374 -370 -212 -173 -311 -233
-421 -256 -58 -12 -62 -11 -98 12 -50 33 -61 64 -54 157 9 138 79 314 313 787
87 175 138 274 207 398 15 26 38 67 52 92 14 25 36 65 50 90 14 25 36 64 49
88 13 23 33 59 45 80 11 20 31 54 42 74 12 21 34 56 48 78 76 112 129 270 117
348 -24 159 -280 155 -596 -11 -60 -31 -138 -79 -150 -92 -3 -3 -21 -17 -40
-30 -19 -13 -37 -27 -40 -30 -3 -3 -34 -30 -70 -60 -83 -69 -455 -438 -497
-493 -18 -23 -43 -54 -55 -68 -13 -15 -34 -41 -48 -59 -14 -19 -34 -45 -46
-59 -27 -34 -136 -197 -176 -264 -30 -50 -52 -90 -119 -214 -17 -32 -32 -59
-34 -61 -2 -2 -28 8 -59 22 -31 14 -61 26 -66 26 -12 0 -13 42 -1 56 7 8 177
432 241 604 56 149 134 346 162 408 15 34 28 65 28 67 0 3 9 24 19 48 10 23
35 85 56 137 20 52 43 110 51 128 8 17 20 47 28 65 125 291 143 330 287 622
117 235 197 388 247 473 18 29 32 55 32 58 0 3 14 25 30 49 17 24 30 46 30 50
0 6 200 308 210 315 3 3 17 21 30 40 13 19 27 37 30 40 3 3 31 40 63 82 31 42
63 83 70 90 7 7 25 29 41 48 33 41 146 167 231 258 70 76 104 100 262 189 521
292 844 392 1265 393 227 0 352 -31 452 -114 69 -56 90 -106 92 -214 0 -51 6
-98 12 -104 17 -17 77 -1 90 25 19 39 32 150 32 274 0 135 -19 215 -71 290
-54 77 -173 141 -317 169 -68 13 -261 17 -367 7z"/>
<path d="M9275 6294 c-65 -15 -152 -48 -200 -75 -61 -34 -110 -63 -115 -69 -3
-3 -21 -17 -40 -30 -19 -13 -37 -27 -40 -30 -3 -3 -25 -21 -50 -40 -25 -19
-47 -37 -50 -40 -3 -3 -30 -25 -60 -50 -134 -110 -392 -367 -590 -591 -41 -46
-86 -95 -100 -109 -14 -14 -43 -45 -64 -70 -22 -25 -69 -77 -105 -116 -36 -39
-98 -107 -137 -150 -40 -44 -85 -94 -100 -111 -16 -16 -61 -66 -100 -110 -40
-43 -85 -93 -100 -110 -16 -16 -61 -66 -100 -110 -40 -43 -85 -93 -100 -110
-16 -16 -61 -66 -100 -110 -40 -43 -85 -93 -100 -110 -16 -16 -61 -66 -100
-110 -40 -43 -85 -93 -100 -110 -16 -16 -61 -66 -100 -110 -40 -43 -85 -93
-100 -110 -16 -16 -61 -66 -100 -110 -40 -43 -85 -93 -100 -110 -16 -16 -61
-66 -100 -110 -40 -43 -85 -93 -100 -110 -16 -16 -61 -66 -100 -110 -40 -43
-85 -93 -100 -110 -16 -16 -61 -66 -100 -110 -40 -43 -85 -93 -100 -110 -16
-16 -63 -68 -104 -114 -41 -45 -88 -97 -105 -114 -16 -17 -64 -69 -105 -115
-130 -146 -202 -216 -207 -202 -4 9 -20 11 -63 6 l-58 -6 -6 53 c-6 55 -8 148
-26 889 -6 234 -15 576 -21 760 -5 184 -12 529 -16 765 -6 441 -1 553 32 680
49 185 177 321 345 365 83 21 190 109 190 155 0 11 -1736 -2 -1865 -14 -438
-42 -763 -111 -975 -209 -69 -32 -176 -107 -232 -164 -68 -69 -101 -137 -119
-241 -15 -90 -2 -211 33 -304 18 -49 109 -210 127 -223 3 -3 31 -34 61 -70 69
-82 146 -157 233 -228 64 -52 69 -54 113 -49 44 5 94 31 101 54 2 5 -22 30
-54 53 -114 86 -189 190 -229 317 -21 69 -29 208 -15 273 47 225 247 381 601
470 274 69 500 93 995 106 l260 6 110 54 c88 43 329 134 356 134 6 0 1 -38
-34 -225 l-22 -120 -50 -5 -50 -5 -6 -51 c-10 -79 -67 -184 -154 -279 -20 -22
-41 -51 -47 -65 -8 -17 -14 -240 -19 -735 -3 -390 -9 -791 -13 -890 -3 -99 -8
-304 -11 -455 -3 -151 -8 -293 -10 -315 -3 -22 -10 -173 -15 -335 -13 -348
-28 -471 -76 -618 -31 -96 -113 -261 -150 -303 -20 -22 -18 -35 11 -64 25 -24
85 -36 85 -16 0 5 30 42 67 82 134 147 190 196 260 230 129 64 197 132 222
225 11 41 14 44 131 174 41 45 98 107 125 138 28 30 59 65 70 77 11 11 54 59
95 105 41 47 81 92 90 100 8 8 49 53 90 100 41 47 81 92 90 100 8 8 49 53 90
100 41 47 84 94 95 106 11 11 49 53 85 94 36 40 76 85 90 100 14 15 54 60 90
100 36 40 76 85 90 100 37 41 172 190 193 214 23 26 144 160 183 203 16 17 52
57 81 89 28 33 69 78 90 100 21 23 61 68 90 100 28 33 66 75 85 95 18 19 67
73 108 120 41 46 81 91 90 99 8 8 49 53 90 100 41 47 82 92 90 100 8 8 42 45
74 82 l58 68 59 -51 c33 -28 59 -54 59 -58 0 -3 -10 -18 -22 -31 -58 -64 -145
-189 -228 -325 -70 -116 -322 -637 -427 -885 -8 -19 -26 -55 -39 -80 -64 -120
-338 -679 -384 -785 -12 -27 -30 -68 -40 -90 -78 -172 -183 -469 -214 -600
-31 -132 -35 -150 -46 -266 -15 -162 5 -311 56 -410 23 -46 109 -129 169 -164
108 -63 168 -79 310 -79 120 0 137 3 223 32 107 37 199 79 292 136 71 42 152
96 160 106 3 3 25 21 50 40 56 42 223 210 310 310 36 41 67 77 70 80 3 3 25
30 50 60 25 30 51 62 59 70 8 8 23 35 34 60 63 146 101 227 158 342 22 43 33
75 26 72 -6 -3 -52 -57 -102 -120 -49 -64 -95 -121 -100 -127 -6 -7 -25 -32
-42 -57 -18 -25 -42 -57 -55 -72 -13 -14 -39 -46 -58 -70 -59 -74 -362 -373
-425 -419 -116 -86 -211 -143 -320 -192 -196 -87 -287 -75 -343 43 -12 27 -16
66 -16 165 0 226 59 455 242 950 17 44 44 116 60 160 41 110 89 230 118 293
13 29 24 55 24 57 0 2 11 28 24 57 36 79 60 135 96 218 18 41 45 102 60 135
15 33 35 76 43 95 21 46 89 194 135 295 51 109 544 1094 588 1175 57 104 90
162 113 203 81 142 101 177 143 257 19 36 45 82 56 103 12 20 32 54 43 75 12
20 30 49 40 64 11 14 19 29 19 32 0 10 97 153 154 226 205 265 353 375 536
400 124 17 125 17 157 47 43 40 59 73 42 84 -22 14 -208 9 -274 -7z"/>
<path d="M26490 6289 c-81 -21 -200 -74 -265 -117 -42 -28 -157 -112 -165
-122 -3 -3 -26 -22 -52 -43 -26 -21 -53 -43 -60 -50 -8 -7 -56 -50 -108 -97
-113 -102 -234 -222 -350 -350 -47 -51 -96 -105 -110 -120 -14 -15 -57 -63
-96 -107 -40 -43 -85 -93 -100 -110 -16 -16 -61 -66 -100 -110 -40 -43 -85
-93 -100 -110 -16 -16 -61 -66 -100 -110 -40 -43 -85 -93 -100 -110 -16 -16
-61 -66 -100 -110 -40 -43 -85 -93 -100 -110 -16 -16 -63 -68 -104 -114 -41
-45 -88 -97 -105 -114 -16 -17 -64 -69 -105 -115 -41 -47 -86 -96 -100 -110
-14 -14 -43 -45 -64 -70 -22 -25 -69 -77 -105 -116 -36 -39 -98 -107 -137
-150 -40 -44 -85 -94 -100 -111 -16 -16 -61 -66 -100 -110 -40 -43 -85 -93
-100 -110 -16 -16 -61 -66 -100 -110 -40 -43 -85 -93 -100 -110 -16 -16 -61
-66 -100 -110 -40 -43 -85 -93 -100 -110 -16 -16 -61 -66 -100 -110 -40 -43
-85 -93 -100 -110 -16 -16 -61 -66 -100 -110 -40 -43 -85 -93 -100 -110 -36
-38 -173 -189 -196 -216 -14 -15 -21 -17 -32 -8 -9 7 -33 9 -69 5 l-55 -7 -6
94 c-6 100 -10 256 -26 909 -5 223 -12 470 -15 550 -31 852 -36 1358 -17 1470
30 171 85 293 170 376 59 58 105 83 207 115 38 12 78 30 89 41 11 10 23 18 28
18 13 0 68 82 62 91 -7 13 -1487 11 -1697 -1 -508 -31 -920 -110 -1140 -221
-253 -128 -350 -262 -349 -484 0 -224 73 -365 325 -620 126 -128 188 -175 231
-175 35 0 87 22 106 45 16 19 12 23 -71 85 -125 92 -211 255 -226 426 -24 289
179 502 579 608 269 71 518 98 1033 112 l260 7 108 55 c89 45 344 138 354 129
1 -2 -9 -64 -23 -138 -14 -73 -28 -151 -31 -171 -6 -38 -6 -38 -54 -38 l-48 0
-11 -57 c-7 -31 -17 -68 -23 -82 -16 -37 -121 -194 -141 -210 -51 -42 -49 -26
-58 -791 -13 -1260 -45 -2254 -78 -2422 -37 -189 -92 -333 -169 -446 -22 -34
-41 -65 -41 -71 0 -5 14 -21 31 -35 35 -30 77 -34 86 -8 6 17 83 101 197 214
39 39 87 73 139 100 120 60 192 138 212 228 3 14 24 45 46 70 23 25 72 79 109
120 37 42 81 90 96 107 16 17 52 57 81 89 28 33 69 78 90 100 21 23 61 68 90
100 28 33 66 75 85 95 18 19 67 73 108 120 41 46 81 91 90 99 8 8 49 53 90
100 41 47 81 92 90 100 8 8 49 53 90 100 41 47 84 94 95 106 11 11 49 53 85
94 36 40 76 85 90 100 14 15 54 60 90 100 36 40 76 85 90 100 37 41 172 190
193 214 23 26 144 160 183 203 16 17 52 57 81 89 28 33 69 78 90 100 21 23 61
68 90 100 28 33 66 75 85 95 18 19 67 73 108 120 41 46 84 93 96 105 l21 22
58 -53 59 -53 -27 -35 c-15 -19 -33 -41 -40 -49 -13 -13 -89 -120 -118 -167
-75 -118 -131 -219 -198 -356 -91 -184 -201 -414 -201 -419 0 -2 -17 -42 -38
-88 -21 -45 -45 -99 -52 -118 -8 -19 -33 -71 -56 -115 -117 -220 -414 -831
-414 -850 0 -3 -9 -27 -21 -53 -35 -78 -44 -102 -77 -192 -11 -30 -28 -75 -37
-100 -81 -214 -125 -434 -125 -625 1 -143 14 -218 55 -301 104 -213 431 -310
717 -213 158 54 387 188 513 301 101 91 279 275 355 368 25 30 47 57 50 60 3
3 52 67 108 142 l103 137 3 73 c2 40 7 89 10 108 8 39 8 39 -47 -34 -12 -16
-27 -34 -32 -40 -6 -6 -22 -27 -35 -46 -14 -19 -30 -42 -37 -50 -7 -8 -35 -44
-63 -80 -190 -240 -437 -487 -576 -577 -10 -7 -35 -23 -54 -36 -171 -112 -375
-187 -445 -164 -134 44 -158 240 -73 597 30 126 106 374 153 501 9 24 26 69
37 99 11 30 24 64 28 75 5 11 36 92 71 180 34 88 75 188 91 223 15 34 28 65
28 67 0 2 11 28 24 57 13 29 33 74 45 101 37 82 60 136 80 180 92 208 90 202
141 312 25 55 60 129 76 165 37 83 490 989 547 1095 24 44 62 114 84 155 22
41 51 95 65 120 14 25 41 74 60 110 19 36 45 82 56 103 12 20 31 53 42 72 11
19 29 51 40 70 50 87 59 103 90 155 28 47 145 216 160 230 3 3 18 23 35 45 46
63 215 228 269 263 68 44 145 71 247 86 48 7 101 22 119 32 38 23 66 65 57 88
-9 24 -187 21 -287 -5z"/>
<path d="M4750 5553 c-44 -30 -93 -75 -173 -158 -79 -81 -197 -227 -197 -244
0 -5 -3 -11 -8 -13 -20 -8 -124 -201 -197 -363 -15 -33 -56 -121 -92 -195 -36
-74 -83 -173 -105 -220 -74 -154 -447 -904 -471 -945 -13 -22 -37 -65 -54 -95
-16 -30 -40 -72 -52 -92 -11 -21 -29 -53 -40 -70 -10 -18 -33 -58 -51 -88 -18
-30 -41 -68 -50 -85 -38 -66 -105 -173 -141 -227 -22 -31 -39 -62 -39 -67 0
-6 -4 -11 -8 -11 -5 0 -15 -12 -23 -27 -8 -16 -22 -37 -31 -47 -10 -11 -18
-25 -18 -32 0 -7 -4 -14 -8 -16 -5 -1 -33 -39 -62 -83 -48 -72 -99 -142 -133
-185 -7 -8 -23 -31 -37 -50 -13 -19 -27 -37 -30 -40 -3 -3 -17 -21 -32 -42
-15 -20 -34 -42 -41 -50 -7 -7 -19 -22 -27 -34 -45 -65 -115 -138 -274 -289
-12 -11 -50 -45 -86 -75 -36 -30 -67 -57 -70 -61 -3 -3 -41 -32 -85 -65 -275
-207 -460 -288 -714 -314 -107 -11 -234 -1 -323 25 -55 16 -183 79 -205 100
-8 8 -18 15 -22 15 -4 0 -33 25 -64 56 -129 127 -199 313 -215 574 -7 112 -11
135 -27 146 -24 18 -46 18 -71 0 -17 -13 -19 -27 -19 -183 1 -185 12 -262 57
-398 82 -248 208 -418 396 -534 296 -184 584 -215 947 -101 255 80 537 242
694 400 122 122 288 298 331 350 25 30 51 61 58 68 7 8 25 30 40 50 15 21 29
39 33 42 3 3 25 34 49 70 24 36 47 67 50 70 4 3 13 16 20 29 7 14 17 30 22 35
14 18 88 136 88 142 0 3 8 18 19 32 10 15 37 63 61 107 24 44 52 96 63 115 91
164 284 549 367 735 5 11 27 60 50 108 22 49 40 91 40 93 0 2 12 29 26 61 14
32 32 72 39 88 7 17 20 48 30 70 10 22 24 55 31 73 8 17 20 47 28 65 8 17 24
57 36 87 22 57 33 82 69 162 11 26 21 52 21 58 0 6 4 18 9 28 12 23 17 36 112
277 45 116 95 238 111 273 15 34 28 65 28 67 0 14 116 256 154 320 12 22 51
82 84 134 34 51 62 100 62 107 0 26 62 178 90 219 15 22 30 46 34 53 11 18
-25 15 -54 -5z"/>
<path d="M21943 5523 c-127 -103 -300 -304 -385 -449 -27 -46 -114 -220 -198
-399 -285 -601 -525 -1086 -643 -1297 -15 -27 -38 -67 -51 -90 -13 -24 -33
-60 -45 -80 -11 -21 -29 -53 -39 -70 -11 -18 -52 -87 -92 -153 -40 -66 -81
-135 -91 -152 -25 -44 -240 -367 -249 -373 -3 -3 -22 -27 -40 -55 -19 -27 -56
-79 -84 -115 -27 -36 -63 -83 -80 -105 -17 -22 -33 -42 -36 -45 -7 -7 -92
-110 -110 -135 -20 -26 -203 -209 -260 -261 -25 -22 -83 -71 -130 -108 -47
-37 -92 -73 -100 -79 -54 -43 -206 -140 -265 -169 -249 -124 -537 -157 -755
-86 -86 28 -134 52 -201 104 -182 139 -269 335 -286 638 -7 127 -18 156 -63
156 -52 0 -77 -79 -65 -207 33 -368 94 -542 264 -752 93 -115 289 -239 466
-294 278 -87 584 -44 948 135 261 128 333 185 612 478 119 125 161 172 197
222 15 20 33 42 40 50 46 49 228 315 285 418 66 117 77 137 106 188 110 199
407 796 407 817 0 3 15 38 34 79 19 41 49 107 66 147 18 41 43 98 56 127 13
29 24 55 24 57 0 3 10 27 21 53 36 80 47 105 69 162 12 30 28 71 37 90 8 19
19 45 24 58 5 12 14 34 20 50 7 15 15 36 19 47 76 194 200 505 222 553 15 34
28 65 28 67 0 5 44 102 86 190 13 28 38 73 54 100 17 28 33 58 37 68 3 9 9 17
14 17 5 0 9 6 9 13 0 7 8 22 18 33 38 41 60 82 81 149 25 80 77 191 103 219
51 55 -8 47 -79 -11z"/>
<path d="M16369 4955 c-107 -39 -194 -117 -217 -193 -52 -173 55 -302 240
-290 198 13 352 186 308 347 -15 56 -82 125 -135 140 -53 14 -151 13 -196 -4z"/>
<path d="M27551 4950 c-67 -24 -96 -43 -144 -92 -59 -61 -84 -140 -71 -225 9
-62 79 -136 144 -153 111 -30 250 10 335 94 106 106 115 256 21 340 -64 57
-184 72 -285 36z"/>
<path d="M12855 3616 c-73 -48 -147 -72 -359 -111 -105 -20 -191 -37 -191 -38
-22 -34 -70 -103 -75 -107 -3 -3 -17 -21 -30 -40 -37 -53 -219 -298 -265 -356
-22 -28 -51 -66 -65 -84 -14 -18 -45 -59 -70 -90 -25 -31 -56 -72 -70 -90 -14
-18 -45 -59 -70 -90 -25 -31 -56 -72 -70 -90 -30 -40 -73 -93 -80 -100 -3 -3
-17 -21 -30 -40 -21 -30 -24 -43 -21 -106 1 -41 -2 -81 -9 -94 -6 -11 -10 -25
-8 -30 3 -9 28 21 216 254 41 50 83 102 95 116 79 91 107 134 137 210 91 231
123 290 177 328 l48 32 44 -44 c43 -44 44 -45 44 -113 0 -50 -6 -81 -23 -118
-26 -56 -85 -144 -125 -190 -56 -62 -73 -93 -123 -220 -68 -177 -281 -713
-297 -750 -7 -16 -20 -46 -28 -65 -8 -19 -36 -89 -62 -155 -25 -66 -51 -128
-56 -137 -5 -10 -9 -22 -9 -28 0 -5 -13 -39 -30 -75 -16 -36 -30 -68 -30 -71
0 -3 -18 -43 -39 -87 -44 -93 -53 -123 -44 -155 8 -33 39 -28 171 24 64 25
146 52 182 58 l65 12 37 90 c76 185 97 231 204 449 52 105 106 210 121 235 14
25 34 60 44 78 43 74 59 100 99 167 46 75 134 207 156 234 7 9 34 45 61 81 26
36 50 67 53 70 4 3 13 14 21 26 15 22 94 115 169 198 50 55 122 124 166 158
16 12 31 25 34 28 9 10 183 153 260 215 87 69 160 142 160 162 0 7 9 13 19 13
29 0 125 -22 135 -31 15 -14 -29 -113 -298 -664 -75 -154 -160 -325 -188 -380
-89 -174 -171 -339 -179 -360 -4 -11 -15 -40 -24 -65 -106 -284 -129 -475 -72
-600 31 -68 67 -108 118 -130 71 -30 182 -37 279 -16 88 18 264 101 377 177
77 52 262 229 380 364 34 39 81 92 105 119 51 58 62 71 107 126 19 24 40 48
46 54 5 6 30 36 55 66 25 30 51 61 58 68 26 28 33 55 35 137 1 47 1 85 -1 85
-2 0 -26 -26 -55 -57 -29 -31 -61 -66 -72 -78 -11 -11 -53 -59 -94 -105 -94
-107 -393 -406 -446 -445 -22 -17 -46 -36 -53 -42 -7 -7 -39 -28 -70 -46 -169
-98 -293 -99 -330 -3 -27 68 -5 161 98 416 23 58 51 125 62 150 11 25 29 65
40 90 58 129 280 567 346 683 12 20 31 53 42 72 11 19 29 51 40 70 11 19 29
51 40 70 49 86 60 105 106 180 138 224 151 357 41 405 -113 48 -299 29 -467
-48 -58 -27 -255 -154 -355 -230 -60 -46 -196 -153 -205 -162 -3 -3 -34 -30
-70 -60 -143 -121 -204 -187 -243 -262 -20 -40 -51 -95 -67 -123 -17 -27 -33
-57 -37 -65 -7 -17 -83 -132 -92 -140 -4 -3 -19 -22 -34 -42 -38 -51 -144
-158 -156 -158 -18 0 -81 147 -81 188 0 77 49 165 152 273 173 183 243 264
269 314 16 30 39 75 52 98 23 39 34 60 87 152 11 19 29 51 40 70 11 19 29 51
40 71 11 19 47 76 80 124 45 67 60 98 60 125 0 32 -3 35 -28 35 -15 0 -50 -15
-77 -34z"/>
<path d="M16039 3617 c-65 -50 -153 -76 -413 -122 -76 -13 -140 -26 -141 -27
-1 -2 -26 -39 -55 -83 -29 -44 -56 -82 -60 -85 -3 -3 -21 -27 -40 -55 -33 -48
-84 -118 -105 -141 -5 -6 -21 -26 -35 -44 -14 -18 -45 -59 -70 -90 -25 -31
-56 -72 -70 -90 -14 -18 -45 -59 -70 -90 -25 -31 -56 -72 -70 -90 -14 -18 -45
-59 -70 -90 -25 -31 -56 -72 -70 -90 -14 -18 -49 -63 -77 -99 l-53 -66 0 -80
c0 -44 -3 -91 -7 -105 -6 -22 -3 -21 23 10 16 19 31 37 34 40 3 3 17 21 32 42
15 20 33 42 40 50 7 7 33 38 58 68 25 30 47 57 50 60 4 3 13 15 22 28 8 12 32
40 52 62 20 22 53 75 73 118 19 42 55 119 79 170 24 51 44 95 44 98 0 15 68
103 97 126 l35 27 50 -19 c28 -10 53 -22 56 -25 4 -3 7 -41 7 -83 0 -60 -5
-88 -24 -127 -24 -51 -85 -145 -118 -180 -88 -97 -126 -153 -173 -250 -29 -61
-80 -168 -115 -240 -35 -71 -73 -152 -85 -180 -12 -27 -48 -104 -80 -170 -181
-374 -250 -592 -220 -699 28 -100 103 -132 290 -123 155 8 294 45 450 120 32
15 123 69 130 77 3 3 28 20 55 39 174 121 329 271 595 581 12 14 39 45 60 70
35 40 93 110 183 221 38 48 87 151 87 185 0 16 -7 38 -15 48 -14 19 -15 19
-37 0 -37 -31 -60 -57 -118 -124 -30 -36 -59 -70 -65 -76 -5 -6 -30 -35 -55
-64 -25 -29 -56 -65 -70 -80 -14 -15 -50 -56 -80 -91 -78 -90 -352 -365 -435
-436 -125 -107 -258 -187 -334 -199 -28 -4 -53 -1 -84 12 -40 16 -44 22 -55
69 -19 80 0 157 100 410 92 230 172 397 308 639 9 17 68 130 130 251 223 435
277 536 363 685 27 47 58 100 69 119 11 19 37 60 59 92 27 41 39 69 39 93 0
33 -3 36 -29 36 -17 0 -46 -14 -72 -33z"/>
<path d="M27250 3629 c-75 -60 -161 -86 -485 -143 -62 -11 -84 -19 -97 -38
-10 -13 -40 -54 -68 -93 -62 -85 -61 -84 -197 -265 -59 -80 -113 -152 -120
-160 -30 -37 -110 -140 -133 -170 -14 -18 -45 -59 -70 -90 -25 -31 -56 -72
-70 -90 -27 -37 -72 -92 -80 -100 -3 -3 -33 -42 -67 -87 l-63 -81 10 -50 c5
-27 6 -66 3 -86 -3 -20 -3 -36 0 -36 3 0 34 35 68 78 35 42 66 79 69 82 3 3
17 21 32 42 15 20 33 42 40 50 7 7 33 38 58 68 25 30 55 66 68 80 23 25 43 63
113 223 70 158 109 224 156 266 25 23 48 41 52 40 3 0 26 -10 50 -22 51 -25
66 -60 59 -138 -8 -78 -84 -215 -175 -314 -63 -70 -105 -130 -138 -200 -20
-44 -66 -140 -101 -212 -35 -73 -64 -135 -64 -139 0 -3 -40 -89 -90 -190 -49
-100 -90 -186 -90 -189 0 -2 -16 -40 -36 -82 -93 -202 -124 -308 -124 -432 0
-125 58 -172 217 -179 223 -10 441 59 668 211 158 105 202 142 365 307 115
116 126 130 138 180 8 30 36 101 63 158 61 127 150 224 223 244 43 11 44 12
49 62 3 28 9 67 13 86 l7 35 -29 -30 c-16 -17 -49 -55 -74 -85 -25 -30 -55
-66 -67 -80 -12 -14 -30 -34 -40 -46 -267 -310 -537 -575 -676 -666 -23 -15
-48 -33 -55 -39 -26 -22 -126 -62 -166 -66 -50 -6 -110 18 -128 49 -39 72 10
267 144 568 29 67 155 319 182 365 12 22 55 101 93 175 39 74 86 164 105 200
19 36 81 155 137 265 55 110 117 229 137 265 20 36 48 88 63 115 52 93 162
275 175 288 20 19 40 82 33 101 -9 22 -56 20 -87 -5z"/>
<path d="M34319 3626 c-56 -52 -141 -79 -399 -126 -90 -16 -165 -30 -166 -30
0 0 -22 -31 -48 -70 -25 -38 -53 -78 -60 -87 -8 -10 -36 -47 -62 -83 -81 -111
-222 -298 -234 -310 -3 -3 -25 -32 -50 -65 -25 -33 -49 -65 -55 -71 -5 -6 -21
-26 -35 -44 -14 -18 -45 -59 -70 -90 -25 -31 -56 -72 -70 -90 -27 -37 -72 -92
-80 -100 -3 -3 -25 -32 -50 -65 -54 -72 -71 -93 -87 -110 -7 -8 -13 -31 -13
-52 0 -21 -6 -72 -14 -113 -8 -41 -13 -76 -12 -78 2 -1 23 23 47 55 24 32 46
60 49 63 3 3 17 21 32 42 15 20 33 42 40 50 7 7 33 38 58 68 25 30 47 57 50
60 3 3 17 21 32 42 15 20 33 42 40 50 7 7 33 38 58 68 25 30 51 62 59 70 15
15 21 28 91 195 73 175 90 205 143 246 27 22 52 39 56 39 14 0 73 -81 82 -113
24 -85 -35 -220 -163 -370 -50 -58 -61 -82 -168 -362 -23 -60 -47 -121 -52
-135 -6 -14 -15 -35 -19 -47 -5 -13 -13 -34 -19 -48 -5 -14 -14 -35 -19 -47
-5 -13 -18 -44 -30 -70 -12 -26 -21 -52 -21 -56 0 -5 -6 -22 -14 -38 -8 -16
-42 -99 -76 -184 -34 -85 -68 -168 -75 -185 -7 -16 -23 -57 -36 -90 -31 -82
-105 -256 -141 -335 -38 -82 -42 -134 -11 -138 12 -2 81 17 152 42 71 24 155
48 185 51 61 8 66 12 85 70 24 75 92 255 190 505 72 183 220 481 283 572 10
14 18 29 18 33 0 7 80 127 90 135 3 3 22 28 40 55 162 240 522 621 719 763
105 75 173 105 252 110 154 10 241 -88 270 -304 9 -67 9 -112 0 -192 -7 -57
-10 -106 -7 -109 10 -11 108 30 121 50 23 37 83 148 125 233 92 187 91 376 -3
514 -71 103 -146 140 -292 140 -86 0 -128 -8 -215 -43 -173 -67 -483 -312
-543 -428 -15 -30 -38 -73 -51 -95 -14 -23 -42 -75 -64 -115 -76 -143 -152
-263 -204 -320 -22 -24 -135 -119 -142 -119 -2 0 -20 25 -40 56 -66 99 -58
192 26 318 23 34 44 63 48 66 3 3 13 14 21 26 22 33 135 159 233 261 49 51 94
103 101 115 46 86 143 236 177 272 20 22 33 78 24 101 -8 23 -58 18 -87 -9z"/>
<path d="M28850 3545 c-188 -43 -370 -159 -463 -295 -17 -25 -33 -47 -37 -50
-9 -8 -45 -61 -68 -100 -65 -115 -246 -392 -319 -489 -19 -25 -44 -59 -56 -75
-12 -16 -50 -64 -84 -106 -59 -74 -61 -79 -53 -116 5 -22 5 -58 -1 -88 -5 -27
-7 -51 -5 -53 3 -4 55 53 113 123 17 22 42 51 55 67 13 15 40 53 59 84 31 53
34 64 34 137 l0 80 60 13 c93 19 88 23 112 -78 20 -82 80 -224 107 -252 7 -7
23 -28 36 -47 13 -19 70 -82 127 -140 57 -58 123 -134 147 -170 50 -75 136
-249 163 -330 25 -76 25 -253 0 -330 -25 -76 -41 -110 -49 -110 -5 0 -8 -6 -8
-14 0 -29 -86 -106 -152 -136 -165 -74 -515 -82 -654 -15 -130 63 -295 220
-351 331 -63 129 -80 279 -44 390 l20 58 -37 -39 c-21 -22 -50 -56 -66 -75
-16 -19 -56 -66 -90 -103 -67 -75 -73 -90 -75 -190 -1 -76 33 -196 71 -251 35
-50 99 -110 166 -155 157 -106 341 -159 579 -168 174 -7 262 4 396 48 86 28
219 91 245 116 7 7 17 13 22 13 5 0 15 6 22 13 7 7 33 28 58 47 96 73 209 211
259 315 64 131 76 187 76 345 0 161 -13 216 -79 349 -27 53 -111 178 -136 201
-3 3 -30 34 -60 70 -30 35 -95 105 -144 155 -210 214 -277 356 -247 518 20
109 68 183 166 252 77 55 143 77 230 78 130 2 242 -72 299 -196 67 -146 84
-250 65 -387 -14 -106 -9 -117 42 -96 82 34 121 95 190 298 56 160 43 324 -31
427 -32 43 -62 62 -149 93 -131 46 -341 61 -461 33z"/>
<path d="M9935 3480 c-288 -32 -525 -162 -815 -450 -123 -122 -227 -243 -343
-400 -26 -36 -54 -72 -61 -81 -22 -27 -93 -133 -117 -175 -19 -33 -22 -55 -23
-144 -1 -94 -4 -111 -29 -162 -16 -31 -43 -69 -60 -85 -40 -37 -75 -78 -107
-123 -13 -19 -27 -37 -30 -40 -3 -3 -17 -21 -30 -40 -14 -19 -31 -43 -39 -52
-36 -43 -116 -362 -128 -509 -8 -102 15 -179 65 -217 33 -25 42 -27 131 -25
118 1 233 30 345 85 66 33 276 166 334 213 123 98 213 178 290 256 84 84 99
106 150 209 70 144 122 222 165 249 28 17 50 21 126 21 50 0 91 -3 91 -6 0 -6
-43 -87 -89 -168 -31 -55 -113 -173 -160 -231 -78 -95 -139 -267 -148 -416 -7
-121 7 -157 75 -191 42 -20 61 -23 177 -23 195 0 349 46 542 161 83 50 240
157 253 173 3 3 39 35 80 71 87 75 130 118 260 260 52 57 104 113 115 124 11
12 51 58 88 103 l68 81 3 102 2 102 -34 -38 c-19 -22 -46 -55 -61 -74 -14 -19
-28 -37 -31 -40 -3 -3 -25 -30 -50 -60 -25 -30 -51 -62 -60 -70 -8 -8 -36 -40
-61 -70 -106 -126 -314 -323 -439 -417 -79 -59 -153 -100 -220 -123 -72 -24
-112 -25 -160 -4 -33 15 -39 23 -50 70 -11 43 -11 65 0 116 15 73 51 180 86
256 13 29 24 55 24 57 0 24 331 687 443 888 15 26 39 68 53 95 15 26 35 59 45
74 11 14 19 29 19 33 0 3 14 26 30 50 17 24 30 46 30 50 0 3 23 39 50 80 28
41 50 78 50 84 0 5 4 11 8 13 5 2 22 23 39 48 84 123 158 184 239 195 70 10
94 28 94 70 0 29 -5 37 -26 45 -30 12 -1093 11 -1199 0z m290 -142 c17 -9 41
-35 54 -58 58 -104 -8 -281 -230 -616 -70 -106 -134 -200 -143 -210 -8 -11
-36 -48 -63 -84 -26 -36 -50 -67 -53 -70 -3 -3 -17 -21 -32 -42 -15 -20 -33
-42 -40 -50 -7 -7 -25 -29 -40 -50 -15 -20 -33 -42 -40 -50 -7 -7 -26 -29 -42
-48 -144 -176 -410 -443 -576 -580 -30 -25 -57 -47 -60 -51 -16 -19 -142 -95
-182 -111 -68 -26 -76 -24 -84 20 -8 44 -20 62 -43 62 -15 0 -16 8 -10 63 15
143 60 266 195 542 84 173 153 302 183 344 12 16 21 32 21 35 0 4 20 37 43 74
145 224 173 267 182 276 6 6 22 27 35 46 13 19 27 37 30 40 3 3 13 14 21 26
56 82 210 241 299 308 105 80 265 168 350 192 58 17 186 12 225 -8z"/>
<path d="M36930 3484 c-148 -14 -303 -59 -426 -124 -72 -39 -183 -112 -216
-142 -7 -7 -36 -31 -63 -53 -60 -47 -253 -240 -312 -310 -23 -28 -50 -60 -60
-71 -10 -12 -29 -36 -43 -54 -14 -18 -30 -38 -36 -44 -21 -22 -214 -303 -214
-311 0 -4 -13 -26 -30 -50 -16 -24 -30 -47 -30 -50 0 -4 -9 -20 -20 -35 -62
-87 -222 -431 -272 -585 -94 -290 -119 -506 -69 -604 33 -63 61 -76 171 -74
179 3 326 59 543 205 67 46 131 90 142 99 11 10 55 45 98 79 43 35 123 108
178 164 95 95 104 108 166 236 36 74 68 137 72 140 3 3 19 22 34 43 41 55 72
67 172 67 52 0 85 -4 85 -10 0 -12 -71 -149 -98 -189 -10 -14 -24 -38 -31 -53
-8 -15 -21 -36 -30 -45 -9 -10 -27 -34 -41 -53 -13 -19 -27 -37 -30 -40 -88
-80 -191 -414 -161 -523 16 -56 28 -70 81 -98 41 -22 56 -24 180 -23 107 0
151 5 215 22 154 43 251 88 400 186 50 32 92 62 95 65 3 4 21 18 40 31 19 13
37 27 40 30 3 3 34 30 70 60 114 96 274 265 443 464 23 27 47 54 52 60 6 6 22
27 37 48 15 20 33 42 40 50 24 25 98 125 98 132 0 4 14 27 30 51 33 48 41 114
15 135 -16 13 -35 -3 -145 -130 -36 -41 -67 -77 -70 -80 -3 -3 -17 -21 -32
-42 -15 -20 -33 -42 -40 -50 -7 -7 -26 -29 -42 -48 -151 -184 -368 -407 -501
-515 -95 -76 -95 -76 -140 -106 -77 -50 -93 -58 -154 -79 -73 -24 -103 -25
-157 -3 -36 15 -41 22 -52 68 -26 112 24 266 219 674 101 209 114 236 173 346
27 50 63 117 81 150 18 33 44 81 59 108 14 26 37 66 50 90 13 23 33 59 45 80
11 20 30 52 40 71 11 18 38 64 61 102 24 38 52 86 63 107 12 21 28 45 37 55 8
9 26 33 40 52 13 19 27 37 30 40 3 3 21 25 40 50 59 76 103 105 177 115 71 10
93 28 93 74 0 35 -3 39 -31 45 -31 6 -1092 6 -1159 0z m221 -135 c44 -15 78
-46 95 -86 53 -124 -48 -334 -408 -848 -41 -58 -202 -262 -291 -368 -150 -179
-417 -445 -567 -567 -30 -25 -57 -48 -60 -51 -17 -19 -142 -95 -182 -111 -68
-25 -74 -24 -88 27 -10 35 -19 47 -37 51 -24 6 -25 9 -18 61 7 59 41 184 75
278 33 90 196 418 288 578 12 20 31 52 41 71 11 19 35 59 54 88 19 29 54 84
78 122 23 38 48 74 54 80 6 6 31 40 55 76 24 36 46 67 49 70 3 3 26 32 51 65
65 87 213 231 305 297 93 66 242 144 311 163 62 17 151 18 195 4z"/>
</g>
</svg>

