<svg id="Layer_1" data-name="Layer 1" xmlns="http://www.w3.org/2000/svg" viewBox="0 0 576.42 260.44"><defs><style>.cls-1{fill:#0085c7;}.cls-2{fill:#f4c300;}.cls-3{fill:#df0024;}.cls-4{fill:#0da447;}</style></defs><title>ia</title><g id="g3031"><path id="path3016" class="cls-1" d="M153.78,283.35a89.73,89.73,0,0,0-32.14-173.5c-49.48,0-89.85,40.24-89.85,89.72s40.37,89.72,89.85,89.72q2.84,0,5.64-.17a73.74,73.74,0,0,1,.16-17.69q-2.87.23-5.8,0.23a72.09,72.09,0,0,1,0-144.18h0a72.16,72.16,0,0,1,34.43,135.47c-1.09,4.75-2.46,14.93-2.3,20.4h0Z" transform="translate(-31.79 -109.78)"/><path id="path3790" class="cls-2" d="M292.68,290.13a72,72,0,1,1-106-72.92A71.81,71.81,0,0,0,189,196.8a89.92,89.92,0,0,0-57.5,83.7c0,49.48,40.37,89.72,89.85,89.72a89.86,89.86,0,0,0,88.8-76.82,80.94,80.94,0,0,1-17.47-3.27h0Zm17.26-23.88a89.86,89.86,0,0,0-88.59-75.48q-2.94,0-5.84.19c1.08,4.16,1.06,13.73-.06,17.68h0q2.92-.23,5.9-0.24a71.81,71.81,0,0,1,69.24,52.33,108.81,108.81,0,0,0,19.35,5.51h0Z" transform="translate(-31.79 -109.78)"/><path id="path3842" class="cls-3" d="M429.8,213.36a89.73,89.73,0,0,0,176.37,5.22c10.45-48.36-20.37-96.33-68.73-106.77s-96.23,20.52-106.67,68.88q-0.6,2.77-1,5.55A73.74,73.74,0,0,1,447,190.13q0.38-2.85,1-5.72a72.09,72.09,0,1,1,140.93,30.44h0a72.16,72.16,0,0,1-139.68,5.05C444.85,217.84,435.19,214.35,429.8,213.36Z" transform="translate(-31.79 -109.78)"/><path id="path3850" d="M248.66,189.94a72,72,0,1,1,106,72.92,71.81,71.81,0,0,0-2.27,20.41,89.92,89.92,0,0,0,57.5-83.7c0-49.48-40.37-89.72-89.85-89.72a89.86,89.86,0,0,0-88.8,76.82,80.94,80.94,0,0,1,17.47,3.27h0Zm-17.26,23.88A89.86,89.86,0,0,0,320,289.3q2.94,0,5.84-.19c-1.08-4.16-1.06-13.73.06-17.68h0q-2.92.23-5.9,0.24a71.81,71.81,0,0,1-69.24-52.33,108.81,108.81,0,0,0-19.35-5.51h0Z" transform="translate(-31.79 -109.78)"/><path id="path3852" class="cls-4" d="M491.12,290.13a72,72,0,1,1-106-72.92,71.81,71.81,0,0,0,2.27-20.41,89.92,89.92,0,0,0-57.5,83.7c0,49.48,40.37,89.72,89.85,89.72a89.86,89.86,0,0,0,88.8-76.82,80.94,80.94,0,0,1-17.47-3.27h0Zm17.26-23.88a89.86,89.86,0,0,0-88.59-75.48q-2.94,0-5.84.19c1.08,4.16,1.06,13.73-.06,17.68h0q2.92-.23,5.9-0.24A71.81,71.81,0,0,1,489,260.73,108.81,108.81,0,0,0,508.38,266.25Z" transform="translate(-31.79 -109.78)"/></g></svg>

