<?xml version="1.0" encoding="utf-8"?>
<!-- Generator: Adobe Illustrator 19.2.1, SVG Export Plug-In . SVG Version: 6.00 Build 0)  -->
<svg version="1.1" id="Layer_1" xmlns="http://www.w3.org/2000/svg" xmlns:xlink="http://www.w3.org/1999/xlink" x="0px" y="0px"
	 viewBox="0 0 640 480" style="enable-background:new 0 0 640 480;" xml:space="preserve">
<style type="text/css">
	.st0{fill:#244AA5;}
	.st1{fill:#D0A650;}
	.st2{fill:#FFFFFF;}
</style>
<rect x="0" class="st0" width="640" height="482"/>
<path class="st1" d="M249.4,228.6c0,0,1.3-0.8,1.7-1c0.5-0.1,2.1-0.6,2.1-0.6s1-0.5,1.6-0.5c0.6,0,1.7,0.6,2.1,1.2
	c0.3,0.5,2.2,1.5,2.2,1.5s1.3,0.4,1.5,0c0.2-0.4,0.8-0.7,1.4-0.7s0.7-0.5,0.7-1s0.2-1,0.7-1.5c0.5-0.5,1.4-0.8,1.4-0.8
	s1.3-0.5,1.4-1.3s1.4-1.3,2.1-1.4c0.7-0.1,0-0.4,1.8-0.2c1.8,0.2,2.1-0.4,2.2-1c0.1-0.5,0-1.1,1.2-1c1.2,0.1,1.7,0.1,1.7-0.5
	c0-0.6,1-1-0.8-1.5c-1.8-0.5-1.7-0.1-1.8-1c-0.1-0.8,0-0.7-1.3-0.8c-1.3-0.1-0.6-0.7-0.7-1.4c-0.1-0.6-0.5-1-0.7-1.4
	c-0.2-0.4-0.9-0.4-0.9-1c0-0.6-0.1-1-0.8-1c-0.7,0-0.9,0-0.9-0.6c0-0.6,0.1-1.2,0.8-1.2c0.7,0,1-0.5,0.9-1.2c-0.1-0.6-0.1-2-0.1-2
	l0.9-1.1c0,0,2.7-2.2,3-2.6c0.2-0.4,1.2-0.7,1.6,0.1c0.5,0.8,0.7,1.1,1,1.5c0.3,0.4,1.4,0.1,1.6-0.3c0.2-0.4,0.3-2,0.9-2.8
	c0.6-0.8,1-1.2,1.2-1.9c0.2-0.7,0.5-1.2,1.2-1.2s1.2-1,1.2-1.5s0.3-1.1,1.2-1.2c0.9-0.1,1.3-0.7,1.6,0.1s0.6,0.8,1.2,1.1
	c0.6,0.3,1.5,0.7,1.9,0.3c0.5-0.4,0.7-1.1,1.3-0.7c0.6,0.4,1.1,0,1.3-0.8c0.2-0.8,0.3-1.9,0.3-1.9s0.2-0.6,1.2-0.6s0.3-0.7,0.9-1.1
	c0.6-0.4,0.6-0.8,1.3-0.6c0.7,0.3,1.9-0.3,1.3-1c-0.6-0.7-1.9-1.8-1.2-2.6c0.7-0.8,1-2.2,0.3-2.3s-1.8,0.1-1.9-0.7
	c-0.2-0.8-0.5-1.4,0.5-1.5c0.9-0.1,2.4-0.1,2.8-0.6c0.5-0.4,1.9-0.7,1.9-1.9s0.5-1.4,0.6-2.1c0.2-0.7,0.2-2.1-0.5-2.8
	c-0.6-0.7-1.5-1.7-1.6-2.1c-0.2-0.4-0.7-1.1-1.6-1.4c-0.9-0.3-1.6-0.4-1.6-1.1c0-0.7,0.6,0.1,0.6-1.7c0-1.8-1.2-2.1-1.2-2.1
	l-1.8-1.1c0,0-3.2-0.8-4-0.8s-1.8-0.9-0.9-1.5c1-0.6,1.2-1.6,0.9-2.4c-0.4-0.8-0.6-1.3-2-1.7s-1.7-0.7-1.1-1.5s0.7-1.3,1.5-0.8
	s2,0.8,2.9,0.3c1-0.4,1.3-0.8,1.8-0.3c0.5,0.4,1.1,0.9,1.8,0.2c0.7-0.7,2.1-0.8,2.7-0.4c0.6,0.3,2.1,0.2,2.6,0
	c0.5-0.2,1.5-1,1.5-1.5c0-0.4,0.6-1.2,1.2-1.6s1.3-1.5,2-1.5s0.9-0.7,0.9-1.1c0-0.4,0.5-1.3,0.6-1.7c0.1-0.3,1.3-0.8,2.2-0.1
	c0.9,0.7,2,0.9,2,0.9s1.2,0.2,1.8,0s1.5-0.4,2.3,0.1c0.9,0.6,2.1,0.6,2.1,0.6s0.2-0.9,0.2-1.3c0-0.4,0.2-1.2-0.2-1.6
	c-0.5-0.3-1.1-0.8-0.1-1.5c1-0.7,1-0.6,2-0.6c1,0,1.6,0.1,2.3,0.1c0.7,0,2,0.7,2,1.3c0,0.7,0.5,1.1,1.1,1.5c0.6,0.3,1.3,0.7,1.1,1.2
	s-0.2,1,0.5,0.9c0.7-0.1,1,0.3,1,0.9s0.2,0.9,1,1.1c0.7,0.2,1.1,0.7,1.1,1.2s-0.1,0.9,0.1,1.5c0.2,0.6,1,1.5,1,1.5s1.3,1.6-0.4,0.8
	c-1.7-0.8-2.1-1.1-2.7-1c-0.6,0.1-1,0.4-1,0.4s-0.9,0.2-1.5,0.2s-1.2,1.2-0.2,1.5c1,0.2,1.3,0.4,1.3,1.2c0,0.8-0.4,0.6-0.9,1.1
	c-0.5,0.6-0.9,0.2-1.7,0.2c-0.9,0-1.1,0.7-1.1,1.3s0.4,0.6,0.7,1.1c0.4,0.6,1,0.7,1.6,0.1s1.1-0.9,1.5,0.1c0.4,1,0.9,1,1.6,1
	c0.7,0,1,0,1.6-0.3s1.3,0,1.5,0.9c0.1,0.9,0.7,1,1.3,1.3c0.6,0.3,1,0.6,1.1,1.1c0.1,0.6,0.5,0.8,1.1,0.4s1.6-0.6,2-0.1
	c0.4,0.4,1,1.3,1,1.3l0.1,1.1l2.3,0.8c0,0,0.2,0.6,0.2,1c0,0.4,0.4,0.7,1,0.6c0.6-0.1,1.7,0,1.7,0s0.9-0.3,0.9-1
	c0-0.7,0.4-0.9,1-0.9s2,0.4,2.3-0.2c0.4-0.7,1.5-0.9,2.3-0.6c0.9,0.3,3.1,1.2,3.1,1.2s-0.2,0.1,0.5,1.2s2.1,1.1,2.1,1.1
	s0.1,1,0.4,1.5c0.2,0.4,1.3,0.7,2,0.2c0.6-0.4,1.5-1,2.2-1c0.7,0,1.2,0,1.2-0.4c0-0.4-0.7-0.8-0.7-1.5c0-0.7,0.7-0.7,0.9-1.3
	c0.1-0.7,0.9,0,1.3,0.3s1.1,0.9,1.1,1.3c0,0.4,1,2,1.6,2.2s2.2,0.3,2.7-0.2c0.5-0.6,1.7-0.8,1.6,0.6c-0.1,1.3-0.4,1.5,0.5,1.9
	c0.9,0.4,1,2,0.2,2.5c-0.7,0.4-1,0.6-1,1.3c0,0.8-0.2,1.7,0.4,2.1s1,0.8,1,1.2c0,0.4,0.7,2.5,0.7,2.5s0.4,2,0.2,2.5
	c-0.1,0.4-0.4,1.2,0.7,1.1c1.1-0.1,1.3-0.1,1.3,0.8s0.4,1.2-0.2,1.6s-1,1.5-0.4,1.7s1.1,0.6,1.2,1c0.1,0.4,1.1,1.2,1.7,0.8
	c0.6-0.4,0.7-0.7,1.2-0.8c0.5-0.1,0.9-0.4,0.4-1c-0.5-0.6-0.6-1.1-0.1-1.5c0.5-0.3,0.7-1.5,0.7-1.5s0.7-1,1.6,0c0.9,1,1,0.7,1.6,0.7
	s0.9,0.6,0.9,1.1s1.2,0.4,1.2,1.3c0,0.9,0.2,3,0.2,3s0,1.2,0.7,1.7s0.6,0.6,0.2,1.1c-0.4,0.6-0.2,1.5-0.2,1.9c0,0.4,0.2,0.7-0.4,1.1
	c-0.6,0.4-0.9,1-0.5,1.7c0.4,0.7,0.2,1.1,1.2,1.9c1,0.8,0.9,1.1,0.9,1.7s1,1.3,1,1.9s0.7,1.2,1.3,1.3c0.6,0.1,1.3,1.1,1.3,1.7
	s0.1,2,0.1,2s-0.1,0.3,0.6,0.3c0.7,0,1.2,0.8,1.5-0.1c0.2-0.9,1-1,1.5-1.2c0.5-0.2,1.5-0.7,2-0.3s1.1,0.3,1.6,0.3
	c0.5,0,2.8,0.1,2.8,0.1s0.6-0.1,1,0.8s1.5,1.9,0.9,2.4c-0.6,0.4-0.6,1.3,0.1,1.3c0.7,0,1.5,0,1.5,0.6c0,0.6,0.1,1,0.7,0.7
	s1-0.4,1.2,0c0.2,0.4,0.7,0.4,1.3,0.8c0.6,0.3,0.9,0.1,1.2-0.3c0.4-0.4,1.8-0.9,1.8-0.9s2-0.4,2.7-0.2c0.7,0.2,1.7,0.7,1.7,0.7
	s0.5,1.1,0.2,1.8c-0.2,0.7-0.5,0.6-0.2,1.6c0.2,1-0.2,1.1-0.7,1c-0.5-0.1-1-0.1-1,0.8s-0.5,1.1-0.5,1.9s0,0.7-0.5,1
	c-0.5,0.3-0.6,0.9,0.1,1c0.7,0.1,0.5,0.9,0.5,1.3c0,0.4-0.1,1.5-0.1,1.5s0.1,0.6-0.7,0.6c-0.9,0-1.6-0.1-1.7,0.4s-1.1,1.5-0.2,2
	c0.9,0.6,0.6,0.9,0.1,1.1c-0.5,0.2-0.9,1.3,0.1,1.7s0.9,0.7,0.2,1.1s-1.8,0.8-1.8,1.5s-0.2,0.7-1,0.8c-0.7,0.1-1.1,1-0.2,2.1
	c0.9,1.1,1.1,0.9,1.7,0.9s0.6-0.9,0.6-0.9s2.1,0.1,2.7,0.1s1.5,0,2-0.3c0.5-0.3,1.8-0.9,1.8,0.1s0.2,0.9,0.9,1.3
	c0.6,0.4,0.7,0.1,1.2,0.8c0.5,0.7,0.6,0.1,1-0.7s1.1-1.6,1.7-0.7s0.6,0.7,1.3,0.7c0.7,0,1,0.3,1,0.9s0.7,0.6,1.6,0.4
	c0.9-0.1,1,0.4,1.3,1s0.5,0.4,1,0.4c0.5,0,1,0,1.3-0.4s0.9-1,1.3-0.3c0.5,0.7,1.5,0.6,1.7-0.2s1.3-1.5,2-0.6s1.1,0.9,1.7,1
	c0.6,0.1,1.5,0.1,1.8,0.7c0.4,0.6,1.6,1.5,0.7,2.1c-0.9,0.7-1.8,1.6-1.1,1.8c0.7,0.2,1.2,0.4,1.7,1c0.5,0.6,2.1,0.8,2.8,0.9
	c0.7,0.1,1.3,0.2,2.2-0.4s1.7-0.7,1.6,0.2c-0.1,0.9,0.4,1.9,0.4,1.9s0.6,1.5,0.6,2c0,0.6-0.1,0.7,1,1.3c1.1,0.7,1,1.1,1.8,0.4
	c0.9-0.7,1.1-1,1.1-1.6c0-0.6,0-1.8,0-1.8s1.2-0.2,1.7-0.6c0.5-0.3,2.4-1.3,2.9-0.9c0.5,0.4,1.1,0.3,1.6,0.1c0.5-0.2,1.5-0.2,2-0.2
	c0.5,0,1.3,0.1,2.3-0.7c1-0.8,1-0.6,1.6,0c0.6,0.6,0.6,1.2,0.2,1.7c-0.4,0.4,0,1.5,0.9,1.5s1.1,0.4,1.1,1c0,0.6,0.1,1.3,0.2,1.8
	s0.1,0.7,1.5,1c1.3,0.3,1.1,1.1,1.3,1.7c0.2,0.6,0.2,1-0.5,1s-1,0.3-1.1,0.9c-0.1,0.6-1.2,0.8-1.2,0.8l-1.1-0.2c0,0-0.7,0-1.1,0.4
	c-0.4,0.4-1.1,1.3-0.6,2.1c0.5,0.8,0.5,1.2,0,1.6c-0.5,0.3-0.7,2-1.2,1.7c-0.5-0.3-1.1,0.1-1.6,0.3c-0.5,0.2-0.4,1.8,0.6,2.4
	c1,0.6,1.2,1.3,1.2,1.3l1.1,1.7c0,0-0.4,0.3-0.6,0.9c-0.2,0.6-1,1.7-0.2,1.9c0.7,0.2,0.4,1.5-0.4,1.5c-0.7,0-1.6-0.3-1.7,0.6
	c-0.1,0.9-0.5,0.7-1.2,0.6c-0.7-0.1-2.6-0.6-3.1,0.3c-0.5,0.9-0.6,1.2-1.5,1.1c-0.9-0.1-0.5,1.3-0.2,1.9c0.2,0.6,1.1,1.3,1.1,1.3
	s0.7,0.6,0.7,1.7s-0.5,1-1,0.2c-0.5-0.8-1.5-0.7-1.6,0.2c-0.1,0.9-0.2,2.2-1.1,2.2s-1.2,0.2-1.6,0.7c-0.4,0.4-1,1.2-1,1.7
	s-0.1,0.9-0.7,1s-0.7,1.3-0.7,1.3s-1.5,0.2-1.6,0.8c-0.1,0.6,0.1,1.5-1.1,1.6s-2,0.9-2.3,1.5c-0.4,0.6-0.5,1,0,1.6
	c0.5,0.6,0.9,2.4,1.5,2.7s1.1,0.4,1,1.3c-0.1,0.9-0.9,1.6,0.1,1.6s1.6,0.2,1.2,1s-0.4,0.9-1.1,1.2s-1.1,0.3-1.1,1.2
	c0,0.9,0.2,0.9-0.4,1.2s-0.6,0.8-0.6,1.5s-0.2,0.4-1,1.2c-0.7,0.8-1.7,0.8-2.3,0.6c-0.6-0.2-0.7-0.2-0.9-0.9s-1.2-0.7-1.8-0.6
	c-0.6,0.1-1.5,0.8-1.5,0.8s-1.1,0.7-0.6,1.2c0.5,0.6,0.2,1.5-0.6,1.3c-0.9-0.1-2.8,0.9-3.4-0.1s-2.3-1.7-2.6-0.3
	c-0.2,1.3,0.7,1.2,0.6,2.6c-0.1,1.3-0.4,1.3-0.9,1.8c-0.5,0.4-0.5,0.8-0.6,1.3c-0.1,0.6-0.2,1.8,0.6,2.2s1.2,1.7,1.2,2.4
	c0,0.7,0,1.3,0.9,1.3c0.9,0,1.6-0.1,1.7-0.9c0.1-0.8,1.8-1.2,2,0.3c0.1,1.6,0.1,2.4,0.7,3s1.1,1.6,1.6,1.9s1.3,3.2,1.3,3.2
	c-1.2,0.3-1.5,1.8-2.3,2.1c-0.4,0.2-0.9,0-1.3,0.3c-0.3,0.2-0.3,0.6-0.7,0.8c-0.9,0.4-0.7-1-1.8-0.5c-1,0.4-1.1,1.6-2.5,1.1
	c-0.7-0.3-1.2-3.1-1.4-3.8c-0.1-0.4-0.9-1.6-1.1-1.9c-0.8-1.2-2.5,0-3-0.4c-0.8-0.6-0.5-1.5-1.7-1.6c-2.5-0.2-0.7,1.5-1.8,1.9
	c-2,0.7-2-1.9-3.6-0.7c-0.6,0.4,0.9,0.7,0.5,1.5c-0.3,0.6-1.8,1.6-1.7,2.4c0.1,1,1.3,1.3,1.6,2.2c0.9,2.3-0.6,3.9-2.9,2.1
	c-1.3-1-1.5-2.9-3.5-2.8c-0.5,0-0.6,0.5-1.1,0.6c-0.5,0-0.8-0.4-1.3-0.3c-0.7,0.3-0.1,0.8-0.2,1.2c0,0-1,0.8-1.1,1
	c-0.5,0.7-0.4,1.4-1.2,2c-0.7,0.5-1.2,0.2-1.9,1c-0.8,0.8-0.8,2-1.8,2.8c-0.5,0.4-0.8-1.2-1.4-0.1c-0.1,0.1-0.2,0.3-0.2,0.4
	c-0.2,0.3-0.2,0.4,0,0.8c1.3,2.5-1.4,3.4-2.2,5.1c-0.4,0.7,0.6,1.4,0.2,2c-0.3,0.4-1.5,1.6-1.6,1.8s-0.2,0.8-0.4,1
	c-0.2,0.2-0.9,0.1-1,0.4c-0.1,0.4,0.8,0.7,1,1c0.3,0.3-0.1,0.7,0,0.8c1.4,1.4,0.5,1,1.3,2.2c0.1,0.2,0.5-0.1,0.7,0.3
	c0.2,0.4-0.3,0.4-0.2,0.9c0,0.1,1,1.4,1,1.4c0.1,0.4-1.9,1.3-2.3,1.3c-1.2,0,1-2.4-0.9-2.4c-0.8,0-0.9,1.9-1.1,2.1
	c-0.1,0.1-0.9,0-1,0c-1.2,0-2,1.5-2.5,1.7c-0.3,0.1-1-0.2-1.5-0.1c-0.5,0.1-1.1,0.6-1.5,0.6c-0.3,0-0.5-0.2-0.7-0.3
	c-0.5-0.3-1.6-0.4-2.2-0.6c-0.3-0.1-1,0.4-1.2,0.3c-0.4-0.3,0.3-1-0.6-1.5c-0.1-0.1-0.8-1.7-0.8-1.8c0.3-1.1,0.6-2.2,0.5-3.3
	c-0.2-1.2-2-2.1-2.5-3.1c-0.4-0.7-0.7-2.6-1.4-3c-0.8-0.5-1.5-1.5-1.9-2.2c-0.1-0.2,0.2-0.6,0-1c-0.3-0.4-0.9-0.6-1-1.2
	c-0.1-0.4,0-1.9-0.5-2.2c-0.6-0.3-4.3-0.8-5.2-0.9c-0.5,0-0.9,0-1.2-0.4c-0.2-0.1-0.4-0.7-0.5-0.7c-0.4,0-0.8,0.2-1.2,0.2
	c-0.3,0-0.7-0.2-1,0c-1.2,0.8-1.5,1.9-2.6,2.7c-1.2,0.9-2.4,0.8-3.6,1.9c-0.7,0.6-1.2,2.2-2,2.9c-0.3,0.3-0.8,0-0.9,0.1
	c-0.6,0.8-1.5,1.2-2.1,1.9c-0.1,0.1-0.1,0.4-0.2,0.5l-1.3,0.3c-0.3,0.1-1,0-1.3,0.1c-0.6,0.2-0.6,0.8-2.7,1.3
	c-0.2,0-0.4,0.2-0.5,0.3c-0.2,0.2-0.4,0.4-0.7,0.6c-0.2,0.1-0.6-0.1-0.9-0.1c-0.5,0.1-0.8,0.5-1.3,0.6c-1.1,0.1-2.9-0.5-3.7-0.2
	c-0.5,0.2-2,1.8-2.5,2c-0.3,0.1-0.6,0-0.9-0.2c-0.2,0.2-0.6,2-0.8,2.4c0,0-2.4,2-2.5,2.2c-0.3,0.3-0.4,0.7-0.8,1.1
	c-0.2,0.3-0.6,0.5-1,0.5c-0.5,0-1.2-0.4-1.7-0.4c-0.9-0.1-3.5-0.3-4.3-0.1c-0.8,0.2-0.6,2.5-2.6,2.8c-1.2,0.1-2.3,0.4-3.5,0.5
	c-0.1,0-0.9-0.5-1.6-0.3c-0.3,0.1-1.2,1-1.2,1.3v0.5c0,0.1,0.2,0.4,0.2,0.4c-0.5,0.5-1.5,1.4-1.8,2c-0.1,0.2-0.2,0.4-0.4,0.5
	c-0.3,0.2-1.7,0.7-1.8,1c-0.3,0.8,1,1.6,0.9,2c-0.4,1.1-1.8,2.1-2.3,3.1c-0.2,0.4,0.5,1.8,0.5,2.3c-0.2,1.3-0.6,3-0.5,4.3
	c0,0.3,0.2,1.6,0.3,1.7c0.2,0.3,0.5,0.4,0.7,0.6c0.2,0.2,1.8,3.4,1.9,3.7c0.3,2.3-3.1,1.5-1.1,3.9c0.3,0.4,0.5,0.8,0.9,1.1
	c0.4,0.4,2.9,2.2,3,2.4c0.1,0.3-2,0.7-2.4,1c-1,1-1.8,2.7-2.7,3.7c-0.6,0.6-1.1-0.1-1.9,1.4c-0.3,0.5,0,1.7-0.3,2.1
	c-0.5,0.5-0.9-0.2-1.4,0.1c-0.2,0.1-0.3,0.7-0.5,0.9c-0.5,0.5-5.4,3.1-5.9,2.8c-0.2-0.1-0.5-0.9-0.5-1.2c-0.1-0.3-0.4-0.9-0.6-1.1
	c-1.3-1.1-3.2-1.3-4.4,0c-0.3,0.3-0.3,0.8-0.7,1.2c-0.7,0.6-1.4,1.1-2.1,1.6c-0.1,0.1-0.5,0.5-0.6,0.5c-0.5-0.1-1.7-1.4-2-1.8
	c-0.5-0.6-2.1-2.2-2.3-2.9c0-2.5-2-5.1-2.8-7.6l1.2,0c1.4-0.9,1-3.2,3.4-2.3c0.3-0.4,0.3-0.9,0.9-1.2c0.2-0.1,0.6-0.2,0.7-0.4
	c0.8-1.3,1.8-6.1,0.9-7.3c-0.8-1.1-1.6-1.1-2.2-2.9c-0.2-0.5,0.2-1.1,0-1.7c-0.1-0.4-0.9-3.1-1.1-3.3c-0.2-0.2-0.7-0.5-0.7-0.6
	c0-0.2-0.2-3.1-0.1-3.3c-0.8-2.2-3.6-3.7-3.8-3.9c-0.3-0.5-0.7-1.2-1-1.8c-0.4-0.7-0.4-1.1-0.7-1.7c-0.1-0.3-0.5-0.6-0.6-0.9
	c-0.1-0.6,1.6-1.8,1.6-2.9c0-0.3-1.1-1.3-0.9-1.9c0.2-0.6,1.3-1.9,1.3-2.6c-0.1-0.9-1.7-2.8-1.9-3.7c-0.1-0.4,0.6-0.8,0.5-1.1
	c-0.2-0.4-1.9-1.9-2.2-2.4c-0.2-0.3,0.6-0.8,0-1.4c-0.5-0.6-0.1-0.4-0.2-0.8c-0.2-0.5-0.8-1-1-1.6c-0.2-0.5-1.7-5.8-1.6-6.1
	c-0.2-0.4-0.7-0.7-0.9-1s-0.3-1.1-0.5-1.3c0,0-1.6-0.5-2-1c-0.2-0.4-0.3-1.7-0.7-2.3c-0.2-0.3-0.5-0.3-0.8-0.5
	c-0.2-0.2-0.2-0.5-0.3-0.7c-0.5-0.7-1.5-0.1-2.1-2.5c-0.9-0.6-1.7-1.2-2.5-1.9c-0.2-0.1-0.2-0.3-0.4-0.4c-0.6-0.3-1.5-0.3-2-0.8
	c-0.3,0-1.9-0.1-2.1-0.2c-0.2-0.1-0.4-0.8-0.5-0.8c-0.9-0.2-2.3-0.1-3-0.7c-0.6-0.5-0.7-3-1.7-2.6c-0.1-0.1-0.3-0.1-0.4-0.1
	c-0.7-0.9-3-1-3.9-1.5c-0.3-0.2-1.2,0-1.2-0.3c0.2-0.5,0.2-0.9,0.2-1.3c-0.5-0.5-0.9-1.1-1.2-1.5c-0.9-0.2-0.5-0.3-1.1-0.6
	c-1.5-0.1-1.7,0.1-2.7,1c-0.2,0.2-0.7,0.3-1,0.4c-0.5,0.3-0.7,1.2-1.4,0.8c-0.2-0.1-0.4-0.4-0.6-0.5c-0.4-0.4-0.7-0.2-0.9-0.8
	c-1.3-0.7-4.7,1.7-5.5,0c-0.6-0.3-1,0.1-1.5-0.4c-0.2-0.3,0.7-3.1-1.8-4.2c0.6-0.4,1.2-0.8,1.7-1.2c0.2-0.3,0-0.8,0-1.1
	c0-0.5,0.3-1.4,0.2-1.7s-0.5-0.6-0.6-1c-0.2-0.4,0-0.9-0.2-1.3c-0.2-0.1-0.6-0.4-0.8-0.4c-0.6-0.5-1.3-0.9-1.9-1.5
	c-0.1-0.1-0.2-0.4-0.4-0.5c-0.5-0.3-2-0.8-1.9-1.5c0-0.2,0.3-0.3,0.4-0.5c0.1-0.3,0-0.6,0.2-0.9c0.7-1,2.3-0.5,2-2.3
	c-0.1-0.8-0.7-1.5-0.8-2.3c-0.3-0.2-0.3-0.5-0.5-0.7c-1.5-0.1-1.3-1.7-1.9-2.1c-1.6-1.1-2.9-0.4-1.1-2.6c0.2-0.7-1.6-1.8-1.9-2.2
	c-0.6-0.6-0.3-1.9-0.6-2.6c-0.1-0.3-1.2-0.9-1.5-1.4c-0.1-0.1-0.4-0.9-0.5-1l0-0.2c0.3-0.3,0.2-0.8,0.1-1.1
	c-0.2-0.2-0.7-0.1-0.8-0.3c-1.5-1.3-3.2-1.9-5.2-2.7c-0.5-0.2-0.4-0.6-0.8-0.8c-0.4-0.2-3-1.3-3.1-1.3c-0.3-0.1-0.5-1.2-0.7-1.6
	c-0.2-0.3-0.9-1-0.9-1c0.1-1.1-0.6-1.2-1.4-1.8c0.1-0.1-0.1-0.5-0.1-0.6c0-0.1,0.5-2,0.6-2.2c0.2-0.4,0.7-0.8,0.6-1.2
	c-0.1-0.7-0.2-1.8-0.5-2.4c-0.8-2.2-1.8-1.9-1.3-4.8c0.1-0.6-0.1-0.9,0.4-1.5c-0.1,0,0.2-0.3,0.2-0.4c0.3-0.3,1-0.7,1.2-0.9
	c0.5-0.6,0.7-2,1.3-2.5c0.4-0.3,1.6-1,1.9-1.3c0.2-0.2,0.5-0.9,0.3-1.2c-0.4-0.3-0.9-0.1-1.3-0.2c-0.2,0-0.7-0.4-1.1-0.5
	c-0.1-0.1-0.3-0.3-0.3-0.5l-0.2-0.2c-0.5-0.1-1-0.4-1.5-0.5c-0.5-0.2-1.3-0.3-1.8-0.6c-1-0.6-2.1-2.1-3-2.3
	c-1.3-0.3-2.1,0.1-3.3,0.2c-0.8,0.1-0.8-0.4-1.4-0.6c-0.9-0.3-0.2,0.4-2.2-0.2c-0.2-0.2,0.1-0.9,0.2-1.1c-0.3-0.1-0.7,0.1-1,0
	c-1.6-0.4-1-1.9-1.4-2.8c-0.2-0.2-0.9-0.2-1.2-0.2c-0.1,0-0.1-0.2-0.1-0.2l0.2-0.1c0.3-0.4-0.7-1.5-0.7-1.6c0.1-0.3,2-0.6,2.3-0.7
	c0.1-0.3-0.2-0.5-0.2-0.7c-0.1-0.6,0.3-1.3,0.5-1.8l-0.1-0.2c-0.5-0.3-0.7-0.8-1.2-1.1c0-0.3,0.4-0.4,0.4-0.7c0.9-2.6,2.4-0.5,3.7-3
	c0.1-0.2,0.5-0.8,0.6-1.2l0.2-0.1c0.2,0.1,0.6,0.3,0.8,0.2c0.2-0.3,0.6-0.3,0.9-0.4l0.5,0.1c2.4-0.5,1.8-1.4,3.2-2.4
	c0.4-0.3,1.4-0.4,1.9-0.5c0.5,0.2,1.3,1,2.2,1.4c0.7,0.3,3.1,0.8,3.5,1c0.5,0.3,0.6,1,1.1,1.2c1.4,0.7,0.6-0.5,1.9-0.3
	c1.3,0.3,2.4,1.4,3.7,1.9c0.2,0.1,0.7,0,1-0.1c0.4-0.1,2.5-0.5,2.7-0.4c0.2,0.1,0.6,0.3,0.9,0.4c0.3,0.1,0.5-0.6,0.8-0.6
	c0.9,0.1,0.9,0.5,2.2,0.4c0.1,0,0.6-3.4,1.2-3.6c0.3-0.1,1.3,0.8,1.5,0.9c0.5,0.1,0-0.7-0.1-0.8c-0.1-0.3-0.8-2.4-0.7-2.6
	c0-0.1,0.6,0.2,0.9,0.1c0.7-0.2,1.6-0.4,2.1-0.9c0.1-0.1,1.1-1.5,1.1-1.6c0.1-0.3-0.3-0.8-0.1-1c0.2-0.2,0.7-0.4,1-0.7
	c0.4-0.4,0.5-1.1,1-1.3c2.2-0.2,2.9-1.9,4.9-2.1c0.1,0,0.5-0.1,0.6-0.1l0.4,0.6c0.1,0.2,1.4,1,1.6,0.9c0.2,0,0.3-0.3,0.5-0.4
	c0.4,0.1,1.5-0.6,1.6-1c0-0.1-0.2-0.4-0.1-0.6c0.1-0.2,1.5-1.2,1.7-1.3c0.5,0,1-0.1,1.5,0.1c0.3,0.1,0.3,0.5,0.6,0.6
	c0.3,0,0.9-0.1,1.2-0.1C248.9,229.2,249,228.6,249.4,228.6L249.4,228.6z"/>
<g id="h">
	<g>
		<path id="star" class="st2" d="M353.6,68.9l17,52.3l-44.5-32.3h55l-44.5,32.3L353.6,68.9z"/>
	</g>
	<g>
		<path id="star_1_" class="st2" d="M419.8,80.6l17,52.3l-44.5-32.3h55l-44.5,32.3L419.8,80.6z"/>
	</g>
	<g>
		<path id="star_2_" class="st2" d="M483,103.6l17,52.3l-44.5-32.3h55L466,155.9L483,103.6z"/>
	</g>
</g>
<g>
	<g id="h_1_">
		<g>
			<path id="star_3_" class="st2" d="M286.4,68.9l-17,52.3l44.5-32.3h-55l44.5,32.3L286.4,68.9z"/>
		</g>
		<g>
			<path id="star_4_" class="st2" d="M220.2,80.6l-17,52.3l44.5-32.3h-55l44.5,32.3L220.2,80.6z"/>
		</g>
		<g transform="scale(-1,1)">
			<path id="star_5_" class="st2" d="M157,103.6l-17,52.3l44.5-32.3h-55l44.5,32.3L157,103.6z"/>
		</g>
	</g>
</g>
</svg>

