<svg id="Layer_1" data-name="Layer 1" xmlns="http://www.w3.org/2000/svg" viewBox="0 0 470.11 212.41"><defs><style>.cls-1{fill:#0085c7;}.cls-2{fill:#f4c300;}.cls-3{fill:#df0024;}.cls-4{fill:#0da447;}</style></defs><title>ia</title><g id="g3031"><path id="path3016" class="cls-1" d="M120.43,291.35a73.27,73.27,0,1,0-26.21,4.85q2.32,0,4.6-.14A60.14,60.14,0,0,1,99,281.64q-2.34.19-4.73,0.19a58.79,58.79,0,0,1,0-117.59h0a58.85,58.85,0,0,1,28.08,110.48,86.3,86.3,0,0,0-1.87,16.64h0Z" transform="translate(-20.94 -149.8)"/><path id="path3790" class="cls-2" d="M233.72,296.88a58.75,58.75,0,1,1-86.41-59.47,58.56,58.56,0,0,0,1.85-16.65A73.18,73.18,0,1,0,248,299.55a66,66,0,0,1-14.25-2.67h0Zm14.08-19.47a73.29,73.29,0,0,0-72.25-61.56q-2.4,0-4.76.15c0.88,3.4.87,11.2,0,14.42h0q2.38-.19,4.81-0.19A58.56,58.56,0,0,1,232,272.91a88.74,88.74,0,0,0,15.78,4.5h0Z" transform="translate(-20.94 -149.8)"/><path id="path3842" class="cls-3" d="M345.55,234.27a73.27,73.27,0,1,0,.79-26.64q-0.49,2.26-.83,4.52a60.14,60.14,0,0,1,14.07,3.18q0.31-2.33.82-4.66a58.79,58.79,0,1,1,114.94,24.83h0a58.85,58.85,0,0,1-113.92,4.12A86.31,86.31,0,0,0,345.55,234.27Z" transform="translate(-20.94 -149.8)"/><path id="path3850" d="M197.82,215.17a58.75,58.75,0,1,1,86.41,59.47,58.56,58.56,0,0,0-1.85,16.65,73.18,73.18,0,1,0-98.81-78.79,66,66,0,0,1,14.25,2.67h0Zm-14.08,19.47A73.29,73.29,0,0,0,256,296.2q2.4,0,4.76-.15c-0.88-3.4-.87-11.2,0-14.42h0q-2.38.19-4.81,0.19a58.56,58.56,0,0,1-56.47-42.68,88.74,88.74,0,0,0-15.78-4.5h0Z" transform="translate(-20.94 -149.8)"/><path id="path3852" class="cls-4" d="M395.56,296.88a58.75,58.75,0,1,1-86.41-59.47A58.56,58.56,0,0,0,311,220.76a73.18,73.18,0,1,0,98.81,78.79,66,66,0,0,1-14.25-2.67h0Zm14.08-19.47a73.29,73.29,0,0,0-72.25-61.56q-2.4,0-4.76.15c0.88,3.4.87,11.2,0,14.42h0q2.38-.19,4.81-0.19a58.56,58.56,0,0,1,56.47,42.68A88.74,88.74,0,0,0,409.64,277.41Z" transform="translate(-20.94 -149.8)"/></g></svg>

