<?xml version="1.0" encoding="UTF-8"?>
<svg width="600px" height="600px" viewBox="0 0 600 600" version="1.1" xmlns="http://www.w3.org/2000/svg" xmlns:xlink="http://www.w3.org/1999/xlink">
    <!-- Generator: Sketch 49 (51002) - http://www.bohemiancoding.com/sketch -->
    <title>1x1/npa</title>
    <desc>Created with Sketch.</desc>
    <defs></defs>
    <g id="1x1/npa" stroke="none" stroke-width="1" fill="none" fill-rule="evenodd">
        <g id="IPC-Logo" transform="translate(18.000000, 89.000000)">
            <g id="IPC_logo_(2004)">
                <path d="M133.852426,291.932145 C125.06265,295.801366 -12.6642521,305.598555 1.63044759,187.851902 C15.9404535,70.1411924 225.331184,-12.526877 264.303539,1.98486435 C212.137203,28.6880126 104.105742,49.9763817 63.5302238,169.81706 C23.5336808,288.053606 132.874158,290.302719 133.852426,291.932145 Z" id="Shape" stroke="#AA272F" stroke-width="1.8826" fill="#AA272F" fill-rule="nonzero"></path>
                <path d="M347.06639,354.026716 C344.445029,363.290748 263.421101,475.433587 182.616119,388.744536 C101.799158,302.118054 173.281973,88.1687129 209.522497,67.5093502 C196.283928,124.758909 143.143981,221.416877 208.624753,329.591319 C273.19447,436.339347 345.245612,353.847666 347.06639,354.026716 Z" id="Shape" stroke="#00549F" stroke-width="1.8826" fill="#00549F" fill-rule="nonzero"></path>
                <path d="M522.575088,175.639861 C530.747956,180.625319 617.779252,288.053606 513.384022,343.871426 C409.044028,399.70389 221.358881,275.145997 210.854806,234.727849 C262.613863,262.282319 341.911514,338.796776 463.172226,303.366082 C582.649429,268.471208 521.829075,177.341174 522.575088,175.639861 Z" id="Shape" stroke="#298844" stroke-width="1.8826" fill="#008542" fill-rule="nonzero"></path>
            </g>
        </g>
    </g>
</svg>

