<?xml version="1.0" encoding="utf-8"?>
<!-- Generator: Adobe Illustrator 19.2.1, SVG Export Plug-In . SVG Version: 6.00 Build 0)  -->
<svg version="1.1" id="Layer_1" xmlns="http://www.w3.org/2000/svg" xmlns:xlink="http://www.w3.org/1999/xlink" x="0px" y="0px"
	 viewBox="0 0 512 512" style="enable-background:new 0 0 512 512;" xml:space="preserve">
<style type="text/css">
	.st0{fill:#244AA5;}
	.st1{fill:#D0A650;}
	.st2{fill:#FFFFFF;}
</style>
<rect class="st0" width="512" height="512"/>
<path class="st1" d="M179,243.5c0,0,1.4-0.9,1.9-1c0.5-0.1,2.3-0.7,2.3-0.7s1.1-0.6,1.7-0.6c0.6,0,1.9,0.7,2.3,1.3
	c0.4,0.6,2.4,1.6,2.4,1.6s1.4,0.5,1.6,0c0.3-0.5,0.9-0.8,1.5-0.8c0.6,0,0.7-0.6,0.7-1s0.3-1,0.7-1.6c0.5-0.6,1.5-0.9,1.5-0.9
	s1.4-0.6,1.5-1.4s1.5-1.4,2.3-1.5c0.7-0.1,0-0.5,2-0.2c2,0.2,2.3-0.5,2.4-1c0.1-0.6,0-1.2,1.3-1s1.9,0.1,1.9-0.6
	c0-0.7,1.1-1-0.9-1.6c-2-0.6-1.9-0.1-2-1s0-0.8-1.4-0.9c-1.4-0.1-0.6-0.8-0.7-1.5c-0.1-0.7-0.5-1-0.7-1.5c-0.3-0.5-1-0.5-1-1.1
	s-0.1-1-0.9-1s-1,0-1-0.7s0.1-1.3,0.9-1.3s1.1-0.6,1-1.3c-0.1-0.7-0.1-2.2-0.1-2.2l1-1.2c0,0,3-2.4,3.3-2.9c0.3-0.5,1.3-0.8,1.7,0.1
	c0.5,0.9,0.7,1.2,1.1,1.6c0.4,0.5,1.5,0.1,1.7-0.3c0.3-0.5,0.4-2.1,1-3.1c0.7-0.9,1.1-1.3,1.3-2.1c0.2-0.7,0.5-1.3,1.3-1.3
	s1.3-1,1.3-1.7c0-0.6,0.3-1.2,1.3-1.3c1-0.2,1.5-0.7,1.8,0.2c0.3,0.9,0.7,0.9,1.3,1.2c0.7,0.3,1.6,0.7,2.1,0.3
	c0.5-0.5,0.7-1.2,1.5-0.7c0.7,0.5,1.2,0,1.4-0.9c0.2-0.9,0.3-2.1,0.3-2.1s0.2-0.6,1.3-0.6c1.1,0,0.3-0.7,1-1.2
	c0.7-0.5,0.7-0.9,1.5-0.6c0.8,0.3,2.1-0.4,1.5-1.1c-0.7-0.7-2.1-1.9-1.3-2.9c0.8-0.9,1.1-2.4,0.3-2.5c-0.8-0.2-2,0.2-2.1-0.7
	c-0.2-0.9-0.5-1.5,0.5-1.7c1-0.2,2.6-0.2,3.1-0.6c0.5-0.5,2.1-0.7,2.1-2.1s0.5-1.5,0.7-2.2c0.2-0.7,0.2-2.3-0.5-3
	c-0.7-0.7-1.6-1.8-1.8-2.2c-0.2-0.5-0.8-1.2-1.8-1.5c-1-0.3-1.8-0.5-1.8-1.2c0-0.7,0.7,0.2,0.7-1.8c0-1.9-1.3-2.2-1.3-2.2l-2-1.2
	c0,0-3.5-0.9-4.4-0.9c-0.9,0-2-1-0.9-1.6c1.1-0.6,1.3-1.7,0.9-2.6c-0.4-0.9-0.7-1.5-2.1-1.8s-1.9-0.7-1.2-1.6
	c0.7-0.9,0.8-1.5,1.6-0.9c0.8,0.6,2.1,0.9,3.2,0.4c1.1-0.5,1.5-0.9,2-0.4c0.5,0.5,1.2,1,2,0.2c0.8-0.7,2.3-0.9,2.9-0.5
	c0.7,0.4,2.3,0.2,2.8,0c0.5-0.2,1.6-1.1,1.6-1.6c0-0.5,0.7-1.3,1.3-1.7s1.5-1.6,2.1-1.6s0.9-0.7,0.9-1.2c0-0.5,0.5-1.5,0.7-1.8
	s1.5-0.9,2.4-0.1c0.9,0.7,2.1,1,2.1,1s1.3,0.2,2,0c0.7-0.2,1.6-0.5,2.5,0.1c0.9,0.6,2.3,0.6,2.3,0.6s0.3-1,0.3-1.5
	c0-0.5,0.3-1.3-0.3-1.7c-0.5-0.4-1.2-0.9-0.1-1.6c1.1-0.7,1.1-0.6,2.1-0.6c1.1,0,1.7,0.1,2.5,0.1c0.8,0,2.1,0.7,2.1,1.5
	c0,0.7,0.5,1.2,1.2,1.6c0.7,0.4,1.5,0.7,1.2,1.3c-0.3,0.6-0.3,1.1,0.5,1s1.1,0.4,1.1,1c0,0.6,0.3,1,1.1,1.2c0.8,0.2,1.2,0.7,1.2,1.3
	c0,0.6-0.1,1,0.1,1.6c0.3,0.6,1.1,1.6,1.1,1.6s1.5,1.7-0.4,0.9c-1.9-0.9-2.3-1.2-2.9-1.1s-1.1,0.5-1.1,0.5s-0.9,0.2-1.6,0.2
	c-0.7,0-1.3,1.3-0.3,1.6c1.1,0.2,1.5,0.5,1.5,1.3c0,0.9-0.4,0.6-0.9,1.2c-0.5,0.6-0.9,0.2-1.9,0.2s-1.2,0.7-1.2,1.5s0.4,0.6,0.8,1.2
	c0.4,0.6,1.1,0.7,1.7,0.1c0.7-0.6,1.2-1,1.6,0.1c0.4,1.1,0.9,1.1,1.7,1.1c0.8,0,1.1,0,1.7-0.4c0.7-0.4,1.5,0,1.6,1
	c0.1,1,0.8,1.1,1.5,1.5c0.7,0.4,1.1,0.6,1.2,1.2s0.5,0.9,1.2,0.5c0.7-0.4,1.7-0.6,2.1-0.1c0.4,0.5,1.1,1.5,1.1,1.5l0.1,1.2l2.5,0.9
	c0,0,0.3,0.6,0.3,1.1c0,0.5,0.4,0.7,1.1,0.6c0.7-0.1,1.9,0,1.9,0s0.9-0.4,0.9-1.1c0-0.7,0.4-1,1.1-1c0.7,0,2.1,0.5,2.5-0.2
	c0.4-0.7,1.6-1,2.5-0.6c0.9,0.4,3.3,1.3,3.3,1.3s-0.3,0.1,0.5,1.3c0.8,1.2,2.3,1.2,2.3,1.2s0.1,1.1,0.4,1.6s1.5,0.7,2.1,0.2
	c0.7-0.5,1.6-1.1,2.4-1.1s1.3,0,1.3-0.5c0-0.5-0.8-0.9-0.8-1.6c0-0.7,0.8-0.7,0.9-1.5c0.1-0.7,0.9,0,1.5,0.4s1.2,1,1.2,1.5
	c0,0.5,1.1,2.2,1.7,2.5c0.7,0.2,2.4,0.4,2.9-0.2c0.5-0.6,1.9-0.9,1.7,0.6s-0.4,1.6,0.5,2.1c0.9,0.5,1.1,2.2,0.3,2.7
	c-0.8,0.5-1.1,0.6-1.1,1.5s-0.3,1.8,0.4,2.3c0.7,0.5,1.1,0.9,1.1,1.3c0,0.5,0.8,2.7,0.8,2.7s0.4,2.2,0.3,2.7
	c-0.1,0.5-0.4,1.3,0.8,1.2s1.5-0.1,1.5,0.9c0,1,0.4,1.3-0.3,1.7c-0.7,0.4-1.1,1.6-0.4,1.8s1.2,0.6,1.3,1.1c0.1,0.5,1.2,1.3,1.9,0.9
	c0.7-0.5,0.8-0.7,1.3-0.9s0.9-0.5,0.4-1.1c-0.5-0.6-0.7-1.2-0.1-1.6c0.5-0.4,0.8-1.6,0.8-1.6s0.8-1.1,1.7,0s1.1,0.7,1.7,0.7
	s0.9,0.6,0.9,1.2c0,0.6,1.3,0.5,1.3,1.5c0,1,0.3,3.3,0.3,3.3s0,1.3,0.8,1.8c0.8,0.5,0.7,0.6,0.3,1.2c-0.4,0.6-0.3,1.6-0.3,2.1
	c0,0.5,0.3,0.7-0.4,1.2c-0.7,0.5-0.9,1.1-0.5,1.8c0.4,0.7,0.3,1.2,1.3,2.1c1.1,0.9,0.9,1.2,0.9,1.8c0,0.6,1.1,1.5,1.1,2.1
	s0.8,1.3,1.5,1.5c0.7,0.1,1.5,1.2,1.5,1.8s0.1,2.2,0.1,2.2s-0.1,0.4,0.7,0.4s1.3,0.9,1.6-0.1s1.1-1.1,1.6-1.3
	c0.5-0.2,1.6-0.7,2.1-0.4c0.5,0.4,1.2,0.4,1.7,0.4s3.1,0.1,3.1,0.1s0.7-0.1,1.1,0.9c0.4,1,1.6,2.1,0.9,2.6c-0.7,0.5-0.7,1.5,0.1,1.5
	c0.8,0,1.6,0,1.6,0.6c0,0.6,0.1,1.1,0.8,0.7c0.7-0.4,1.1-0.5,1.3,0c0.3,0.5,0.8,0.5,1.5,0.9c0.7,0.4,0.9,0.1,1.3-0.4
	c0.4-0.5,2-1,2-1s2.1-0.5,2.9-0.2c0.8,0.2,1.9,0.7,1.9,0.7s0.5,1.2,0.3,2c-0.3,0.7-0.5,0.6-0.3,1.7s-0.3,1.2-0.8,1.1
	c-0.5-0.1-1.1-0.1-1.1,0.9c0,1-0.5,1.2-0.5,2.1s0,0.7-0.5,1.1c-0.5,0.4-0.7,1,0.1,1.1c0.8,0.1,0.5,1,0.5,1.5s-0.1,1.6-0.1,1.6
	s0.1,0.6-0.8,0.6s-1.7-0.1-1.9,0.5c-0.1,0.6-1.2,1.6-0.3,2.2c0.9,0.6,0.7,1,0.1,1.2s-0.9,1.5,0.1,1.8c1.1,0.4,0.9,0.7,0.3,1.2
	c-0.7,0.5-2,0.9-2,1.6c0,0.7-0.3,0.7-1.1,0.9c-0.8,0.1-1.2,1.1-0.3,2.3c0.9,1.2,1.2,1,1.9,1c0.7,0,0.7-1,0.7-1s2.3,0.1,2.9,0.1
	c0.7,0,1.6,0,2.1-0.4c0.5-0.4,2-1,2,0.1s0.3,1,0.9,1.5c0.7,0.5,0.8,0.1,1.3,0.9c0.5,0.7,0.7,0.1,1.1-0.7c0.4-0.9,1.2-1.7,1.9-0.7
	c0.7,1,0.7,0.7,1.5,0.7c0.8,0,1.1,0.4,1.1,1s0.8,0.6,1.7,0.5c0.9-0.1,1.1,0.5,1.5,1.1c0.4,0.6,0.5,0.5,1.1,0.5c0.5,0,1.1,0,1.5-0.5
	c0.4-0.5,0.9-1.1,1.5-0.4s1.6,0.6,1.9-0.2c0.3-0.9,1.5-1.6,2.1-0.6c0.7,1,1.2,1,1.9,1.1c0.7,0.1,1.6,0.1,2,0.7
	c0.4,0.6,1.7,1.6,0.8,2.3s-2,1.7-1.2,2c0.8,0.2,1.3,0.5,1.9,1.1c0.5,0.6,2.3,0.9,3.1,1c0.8,0.1,1.5,0.2,2.4-0.5
	c0.9-0.7,1.9-0.7,1.7,0.2c-0.1,1,0.4,2.1,0.4,2.1s0.7,1.6,0.7,2.2c0,0.6-0.1,0.7,1.1,1.5s1.1,1.2,2,0.5c0.9-0.7,1.2-1.1,1.2-1.7
	c0-0.6,0-2,0-2s1.3-0.2,1.9-0.6c0.5-0.4,2.7-1.5,3.2-1s1.2,0.4,1.7,0.1c0.5-0.2,1.6-0.2,2.1-0.2c0.5,0,1.5,0.1,2.5-0.7
	c1.1-0.9,1.1-0.6,1.7,0c0.7,0.6,0.7,1.3,0.3,1.8c-0.4,0.5,0,1.6,0.9,1.6c0.9,0,1.2,0.5,1.2,1.1c0,0.6,0.1,1.5,0.3,2s0.1,0.7,1.6,1.1
	c1.5,0.4,1.2,1.2,1.5,1.8s0.3,1.1-0.5,1.1s-1.1,0.4-1.2,1c-0.1,0.6-1.3,0.9-1.3,0.9l-1.2-0.2c0,0-0.8,0-1.2,0.5s-1.2,1.5-0.7,2.3
	s0.5,1.3,0,1.7c-0.5,0.4-0.8,2.2-1.3,1.8c-0.5-0.4-1.2,0.1-1.7,0.4c-0.5,0.2-0.4,2,0.7,2.6c1.1,0.6,1.3,1.5,1.3,1.5l1.2,1.8
	c0,0-0.4,0.4-0.7,1c-0.3,0.6-1.1,1.8-0.3,2.1c0.8,0.2,0.4,1.6-0.4,1.6s-1.7-0.4-1.9,0.6c-0.1,1-0.5,0.7-1.3,0.6
	c-0.8-0.1-2.8-0.6-3.3,0.4c-0.5,1-0.7,1.3-1.6,1.2c-0.9-0.1-0.5,1.5-0.3,2.1c0.3,0.6,1.2,1.5,1.2,1.5s0.8,0.6,0.8,1.8
	s-0.5,1.1-1.1,0.2c-0.5-0.9-1.6-0.7-1.7,0.2c-0.1,1-0.3,2.5-1.2,2.5c-0.9,0-1.3,0.2-1.7,0.7c-0.4,0.5-1.1,1.3-1.1,1.8
	s-0.1,1-0.8,1.1c-0.7,0.1-0.8,1.5-0.8,1.5s-1.6,0.2-1.7,0.9c-0.1,0.6,0.1,1.6-1.2,1.7c-1.3,0.1-2.1,1-2.5,1.6
	c-0.4,0.6-0.5,1.1,0,1.7s0.9,2.6,1.6,2.9c0.7,0.4,1.2,0.5,1.1,1.5s-0.9,1.7,0.1,1.7s1.7,0.2,1.3,1.1c-0.4,0.9-0.4,1-1.2,1.3
	c-0.8,0.4-1.2,0.4-1.2,1.3c0,1,0.3,1-0.4,1.3c-0.7,0.4-0.7,0.9-0.7,1.6c0,0.7-0.3,0.5-1.1,1.3c-0.8,0.9-1.9,0.9-2.5,0.6
	c-0.7-0.2-0.8-0.2-0.9-1c-0.1-0.7-1.3-0.7-2-0.6c-0.7,0.1-1.6,0.9-1.6,0.9s-1.2,0.7-0.7,1.3c0.5,0.6,0.3,1.6-0.7,1.5
	c-0.9-0.1-3.1,1-3.7-0.1s-2.5-1.8-2.8-0.4c-0.3,1.5,0.8,1.3,0.7,2.8c-0.1,1.5-0.4,1.5-0.9,2c-0.5,0.5-0.5,0.9-0.7,1.5
	c-0.1,0.6-0.3,2,0.7,2.5c0.9,0.5,1.3,1.8,1.3,2.6c0,0.7,0,1.5,0.9,1.5c0.9,0,1.7-0.1,1.9-1c0.1-0.9,2-1.3,2.1,0.4
	c0.1,1.7,0.1,2.6,0.8,3.3c0.7,0.7,1.2,1.7,1.7,2.1c0.5,0.4,1.4,3.5,1.4,3.5c-1.3,0.3-1.6,2-2.5,2.3c-0.5,0.2-1,0-1.4,0.3
	c-0.3,0.2-0.3,0.7-0.8,0.9c-1,0.4-0.8-1.1-2-0.5c-1.1,0.5-1.2,1.7-2.7,1.2c-0.8-0.3-1.3-3.4-1.5-4.1c-0.1-0.4-1-1.7-1.2-2.1
	c-0.9-1.3-2.7,0-3.3-0.4c-0.9-0.6-0.5-1.7-1.9-1.8c-2.8-0.2-0.8,1.7-2,2.1c-2.2,0.8-2.2-2.1-3.9-0.8c-0.6,0.5,1,0.8,0.6,1.7
	c-0.3,0.7-2,1.8-1.9,2.6c0.1,1.1,1.4,1.5,1.7,2.4c1,2.5-0.7,4.3-3.2,2.3c-1.4-1.1-1.7-3.2-3.8-3c-0.5,0-0.7,0.6-1.2,0.6
	c-0.5,0-0.9-0.5-1.4-0.3c-0.8,0.3-0.1,0.8-0.3,1.3c0,0-1.1,0.9-1.2,1.1c-0.6,0.8-0.4,1.5-1.3,2.1c-0.7,0.6-1.3,0.2-2.1,1.1
	c-0.8,0.9-0.9,2.2-2,3.1c-0.5,0.4-0.9-1.3-1.6-0.2c-0.1,0.2-0.2,0.3-0.3,0.5c-0.2,0.3-0.2,0.5,0,0.9c1.4,2.7-1.5,3.7-2.4,5.6
	c-0.4,0.8,0.7,1.5,0.3,2.1c-0.3,0.5-1.6,1.7-1.7,2c-0.1,0.3-0.2,0.9-0.5,1.1c-0.2,0.2-1,0.1-1.1,0.5c-0.1,0.4,0.8,0.8,1.1,1
	c0.3,0.3-0.1,0.8,0,0.9c1.5,1.5,0.6,1,1.4,2.4c0.1,0.2,0.6-0.2,0.7,0.3c0.2,0.5-0.4,0.4-0.2,1c0,0.2,1.1,1.5,1.1,1.6
	c0.1,0.5-2,1.4-2.5,1.4c-1.3,0,1.1-2.6-1-2.6c-0.9,0-1,2.1-1.2,2.3c-0.1,0.1-0.9,0-1.1,0c-1.3,0-2.2,1.7-2.7,1.8
	c-0.3,0.1-1.1-0.2-1.6-0.1c-0.5,0.1-1.2,0.6-1.7,0.6c-0.3,0-0.5-0.2-0.8-0.4c-0.6-0.3-1.7-0.5-2.4-0.7c-0.4-0.1-1.1,0.5-1.3,0.3
	c-0.4-0.3,0.3-1-0.7-1.6c-0.1-0.1-0.9-1.8-0.8-1.9c0.3-1.2,0.7-2.4,0.5-3.6c-0.2-1.3-2.2-2.3-2.7-3.3c-0.4-0.8-0.8-2.8-1.5-3.3
	c-0.8-0.6-1.6-1.6-2-2.5c-0.1-0.2,0.3-0.7,0-1.1c-0.3-0.5-1-0.6-1.1-1.3c-0.1-0.5,0-2.1-0.6-2.4c-0.6-0.4-4.7-0.9-5.7-1
	c-0.5,0-0.9,0-1.3-0.4c-0.2-0.2-0.4-0.8-0.6-0.8c-0.4,0-0.9,0.2-1.3,0.2c-0.3,0-0.8-0.2-1.1,0c-1.3,0.9-1.6,2-2.9,3
	c-1.3,1-2.7,0.9-3.9,2c-0.8,0.7-1.3,2.4-2.1,3.2c-0.3,0.3-0.9,0-1,0.2c-0.7,0.8-1.6,1.3-2.3,2.1c-0.1,0.2-0.1,0.5-0.3,0.6l-1.4,0.4
	c-0.4,0.1-1.1,0-1.4,0.1c-0.7,0.2-0.6,0.9-2.9,1.4c-0.2,0-0.5,0.2-0.6,0.3c-0.3,0.2-0.5,0.5-0.7,0.6c-0.2,0.1-0.7-0.1-1-0.1
	c-0.6,0.1-0.9,0.6-1.4,0.6c-1.2,0.2-3.1-0.6-4.1-0.2c-0.6,0.2-2.1,2-2.7,2.1c-0.4,0.1-0.6,0-1-0.2c-0.2,0.2-0.7,2.1-0.8,2.6
	c0,0-2.6,2.2-2.8,2.4c-0.3,0.4-0.5,0.8-0.9,1.2c-0.3,0.3-0.7,0.5-1.1,0.5c-0.5,0-1.3-0.4-1.8-0.5c-1-0.2-3.9-0.3-4.7-0.1
	c-0.9,0.2-0.6,2.8-2.9,3c-1.3,0.2-2.5,0.4-3.8,0.5c-0.1,0-0.9-0.6-1.7-0.3c-0.3,0.1-1.3,1.1-1.3,1.4v0.6c0,0.1,0.3,0.4,0.2,0.5
	c-0.5,0.6-1.6,1.5-2,2.2c-0.1,0.2-0.2,0.4-0.4,0.5c-0.3,0.2-1.8,0.8-2,1.1c-0.4,0.9,1.1,1.8,0.9,2.1c-0.4,1.2-2,2.3-2.5,3.4
	c-0.2,0.5,0.5,2,0.5,2.5c-0.2,1.4-0.7,3.3-0.6,4.7c0,0.3,0.2,1.7,0.3,1.9c0.2,0.3,0.5,0.4,0.8,0.7c0.2,0.2,2,3.7,2.1,4
	c0.3,2.5-3.4,1.7-1.2,4.2c0.3,0.4,0.6,0.8,1,1.2c0.5,0.5,3.2,2.5,3.2,2.7c0.1,0.4-2.2,0.7-2.6,1.1c-1.1,1-2,3-3,4
	c-0.6,0.7-1.2-0.1-2,1.5c-0.3,0.6,0,1.9-0.4,2.3c-0.5,0.6-1-0.2-1.5,0.1c-0.2,0.1-0.4,0.8-0.6,1c-0.6,0.5-5.9,3.3-6.4,3.1
	c-0.3-0.1-0.6-1-0.6-1.3c-0.1-0.3-0.4-1-0.7-1.2c-1.4-1.2-3.5-1.4-4.8,0c-0.3,0.4-0.4,0.9-0.8,1.3c-0.7,0.6-1.6,1.2-2.3,1.8
	c-0.1,0.1-0.5,0.6-0.7,0.6c-0.5-0.1-1.8-1.5-2.2-1.9c-0.6-0.7-2.3-2.4-2.5-3.2c0-2.7-2.1-5.6-3-8.2l1.3,0c1.5-1,1.1-3.5,3.8-2.5
	c0.3-0.5,0.3-1,0.9-1.3c0.2-0.1,0.7-0.2,0.8-0.5c0.9-1.4,2-6.7,1-8c-0.8-1.2-1.7-1.2-2.4-3.2c-0.2-0.6,0.2-1.2,0-1.8
	c-0.1-0.5-1-3.4-1.2-3.6c-0.2-0.2-0.7-0.6-0.8-0.7c0-0.2-0.2-3.4-0.1-3.6c-0.9-2.5-3.9-4-4.1-4.3c-0.4-0.6-0.7-1.3-1.1-2
	c-0.5-0.8-0.5-1.2-0.7-1.9c-0.1-0.3-0.6-0.6-0.6-1c-0.1-0.6,1.8-2,1.7-3.1c0-0.4-1.2-1.5-0.9-2.1c0.2-0.6,1.4-2.1,1.4-2.8
	c-0.1-1-1.8-3-2.1-4c-0.1-0.5,0.7-0.9,0.5-1.2c-0.2-0.4-2.1-2.1-2.4-2.6c-0.2-0.4,0.7-0.9,0-1.5c-0.6-0.6-0.1-0.4-0.3-0.9
	c-0.2-0.6-0.9-1.1-1.1-1.7c-0.2-0.5-1.8-6.3-1.8-6.6c-0.3-0.4-0.7-0.7-1-1.1s-0.3-1.2-0.5-1.5c0,0-1.8-0.6-2.1-1.1
	c-0.3-0.4-0.3-1.8-0.8-2.5c-0.2-0.3-0.6-0.3-0.9-0.5c-0.2-0.2-0.2-0.5-0.4-0.7c-0.5-0.7-1.6-0.1-2.3-2.8c-1-0.7-1.9-1.3-2.7-2.1
	c-0.2-0.2-0.3-0.3-0.5-0.4c-0.7-0.3-1.7-0.4-2.2-0.9c-0.3,0-2.1-0.1-2.3-0.2c-0.2-0.1-0.4-0.9-0.5-0.9c-0.9-0.2-2.5-0.1-3.3-0.8
	c-0.6-0.6-0.8-3.2-1.9-2.9c-0.1-0.1-0.3-0.1-0.5-0.1c-0.7-1-3.3-1.1-4.3-1.7c-0.3-0.2-1.3,0-1.3-0.3c0.2-0.5,0.2-1,0.2-1.5
	c-0.6-0.6-0.9-1.2-1.3-1.6c-1-0.2-0.6-0.3-1.2-0.7c-1.7-0.1-1.8,0.2-2.9,1.1c-0.3,0.2-0.8,0.3-1.1,0.5c-0.6,0.3-0.7,1.3-1.5,0.9
	c-0.3-0.2-0.4-0.4-0.6-0.6c-0.5-0.4-0.7-0.2-1-0.9c-1.4-0.7-5.1,1.8-6,0c-0.6-0.3-1.1,0.1-1.6-0.5c-0.3-0.3,0.7-3.3-2-4.6
	c0.6-0.5,1.3-0.8,1.9-1.3c0.2-0.3,0-0.9,0-1.2c0-0.5,0.3-1.5,0.2-1.9c-0.1-0.4-0.5-0.7-0.6-1.1c-0.2-0.4,0-1-0.2-1.4
	c-0.2-0.1-0.7-0.4-0.9-0.4c-0.7-0.6-1.5-1-2-1.7c-0.1-0.2-0.2-0.4-0.4-0.6c-0.5-0.4-2.1-0.9-2.1-1.6c0-0.2,0.4-0.3,0.5-0.5
	c0.1-0.3,0-0.7,0.3-1c0.8-1,2.5-0.6,2.2-2.5c-0.1-0.9-0.7-1.6-0.9-2.5c-0.3-0.2-0.3-0.6-0.6-0.8c-1.7-0.2-1.4-1.9-2-2.3
	c-1.8-1.2-3.1-0.5-1.2-2.8c0.3-0.8-1.7-2-2.1-2.4c-0.7-0.7-0.4-2.1-0.6-2.8c-0.1-0.4-1.3-1-1.7-1.5c-0.1-0.2-0.4-1-0.6-1l0-0.2
	c0.4-0.3,0.2-0.8,0.1-1.2c-0.2-0.2-0.7-0.2-0.9-0.3c-1.6-1.4-3.5-2.1-5.6-2.9c-0.6-0.2-0.4-0.7-0.9-0.9c-0.4-0.2-3.2-1.4-3.4-1.4
	c-0.3-0.1-0.6-1.3-0.8-1.7c-0.2-0.4-1-1-1-1.1c0.1-1.2-0.7-1.3-1.6-1.9c0.1-0.2-0.1-0.5-0.1-0.7c0-0.2,0.6-2.2,0.7-2.5
	c0.2-0.4,0.7-0.8,0.6-1.3c-0.1-0.8-0.2-2-0.5-2.6c-0.9-2.4-2-2.1-1.4-5.2c0.1-0.6-0.1-1,0.4-1.6c-0.1,0,0.2-0.3,0.3-0.4
	c0.3-0.3,1.1-0.7,1.3-1c0.5-0.7,0.8-2.2,1.4-2.7c0.5-0.4,1.8-1.1,2-1.4c0.2-0.2,0.5-1,0.3-1.3c-0.5-0.3-0.9-0.2-1.4-0.2
	c-0.2,0-0.8-0.5-1.2-0.6c-0.1-0.2-0.4-0.3-0.4-0.6l-0.2-0.2c-0.5-0.1-1.1-0.4-1.6-0.6c-0.6-0.2-1.4-0.3-2-0.6
	c-1.1-0.6-2.3-2.3-3.3-2.5c-1.4-0.3-2.3,0.1-3.6,0.2c-0.9,0.1-0.9-0.5-1.6-0.7c-0.9-0.3-0.2,0.5-2.4-0.2c-0.3-0.2,0.1-1,0.2-1.2
	c-0.3-0.1-0.7,0.1-1.1,0c-1.8-0.4-1.1-2-1.6-3.1c-0.2-0.2-0.9-0.2-1.3-0.2c-0.1,0-0.1-0.2-0.1-0.2l0.2-0.1c0.3-0.5-0.8-1.6-0.7-1.8
	c0.1-0.4,2.2-0.7,2.5-0.7c0.1-0.3-0.2-0.5-0.2-0.8c-0.1-0.6,0.3-1.4,0.5-2l-0.1-0.2c-0.6-0.3-0.8-0.8-1.3-1.2c0-0.3,0.4-0.5,0.5-0.7
	c1-2.9,2.6-0.6,4-3.2c0.1-0.2,0.5-0.9,0.7-1.3l0.3-0.1c0.3,0.1,0.6,0.3,0.9,0.2c0.2-0.3,0.6-0.4,1-0.5l0.5,0.1
	c2.6-0.6,2-1.5,3.5-2.6c0.4-0.3,1.6-0.4,2.1-0.6c0.6,0.2,1.4,1.1,2.4,1.5c0.8,0.3,3.4,0.9,3.8,1.1c0.6,0.3,0.7,1,1.2,1.3
	c1.5,0.8,0.6-0.6,2.1-0.3c1.5,0.3,2.7,1.5,4,2.1c0.2,0.1,0.8,0,1.1-0.1c0.4-0.1,2.8-0.5,3-0.4c0.3,0.1,0.7,0.3,0.9,0.4
	c0.3,0.1,0.6-0.6,0.8-0.6c1,0.2,1,0.6,2.4,0.4c0.1,0,0.7-3.7,1.3-3.9c0.4-0.1,1.4,0.9,1.7,1c0.5,0.1,0-0.8-0.1-0.8
	c-0.1-0.3-0.8-2.6-0.8-2.8c0-0.1,0.7,0.2,1,0.1c0.7-0.2,1.7-0.4,2.3-1c0.1-0.1,1.2-1.7,1.2-1.7c0.1-0.3-0.3-0.9-0.1-1.1
	c0.2-0.2,0.8-0.4,1.1-0.7c0.4-0.4,0.5-1.2,1.1-1.5c2.4-0.2,3.2-2.1,5.3-2.3c0.1,0,0.6-0.1,0.7-0.1l0.4,0.7c0.1,0.2,1.6,1,1.8,1
	c0.2,0,0.3-0.4,0.5-0.4c0.4,0.1,1.6-0.7,1.8-1c0-0.1-0.3-0.4-0.1-0.7c0.1-0.2,1.6-1.3,1.8-1.4c0.5,0,1.1-0.1,1.6,0.1
	c0.3,0.1,0.3,0.6,0.7,0.6c0.4,0,1-0.1,1.3-0.1C178.4,244.1,178.5,243.5,179,243.5L179,243.5z"/>
<g id="h">
	<g>
		<path id="star" class="st2" d="M292.7,69.3l18.5,57.1l-48.5-35.3h60l-48.5,35.3L292.7,69.3z"/>
	</g>
	<g>
		<path id="star_1_" class="st2" d="M364.9,82.1l18.5,57.1l-48.5-35.3h60l-48.5,35.3L364.9,82.1z"/>
	</g>
	<g>
		<path id="star_2_" class="st2" d="M433.7,107.1l18.5,57.1l-48.5-35.3h60l-48.5,35.3L433.7,107.1z"/>
	</g>
</g>
<g>
	<g id="h_1_">
		<g>
			<path id="star_3_" class="st2" d="M219.3,69.3l-18.5,57.1l48.5-35.3h-60l48.5,35.3L219.3,69.3z"/>
		</g>
		<g>
			<path id="star_4_" class="st2" d="M147.1,82.1l-18.5,57.1l48.5-35.3h-60l48.5,35.3L147.1,82.1z"/>
		</g>
		<g transform="scale(-1,1)">
			<path id="star_5_" class="st2" d="M78.3,107.1l-18.5,57.1l48.5-35.3h-60l48.5,35.3L78.3,107.1z"/>
		</g>
	</g>
</g>
</svg>

